<svg width="22" height="22" viewBox="0 0 22 22" fill="none" xmlns="http://www.w3.org/2000/svg">
<path d="M20.9994 15.9635V18.975C21.0017 19.5083 20.7927 20.0208 20.4182 20.4003C20.0437 20.7798 19.5341 20.9955 19.0011 21H18.7781C15.6845 20.6582 12.7129 19.6006 10.0985 17.9111C7.68334 16.3712 5.63422 14.3213 4.09488 11.9052C2.39845 9.28096 1.34096 6.29534 1.00732 3.18805C0.961998 2.65609 1.12847 2.12773 1.47059 1.71798C1.81272 1.30824 2.30277 1.05023 2.83409 1.00013H6.02463C6.51101 0.994703 6.98294 1.16548 7.35336 1.48086C7.72379 1.79624 7.9677 2.23493 8.04011 2.71611C8.16268 3.68145 8.39875 4.62898 8.7434 5.53894C8.87721 5.89882 8.90554 6.28943 8.82501 6.66485C8.74449 7.04027 8.55848 7.38488 8.28887 7.65816L7.01096 8.93656C8.4382 11.4404 10.5117 13.5147 13.0146 14.9425L14.2925 13.6641C14.5666 13.3959 14.9115 13.2113 15.2867 13.1323C15.6619 13.0532 16.052 13.083 16.4109 13.2179C17.326 13.5547 18.275 13.7907 19.2412 13.9216C19.7353 13.9831 20.1888 14.2262 20.5137 14.6036C20.8386 14.981 21.0117 15.4656 20.9994 15.9635V15.9635Z" stroke="#D01018" stroke-width="2" stroke-linecap="round" stroke-linejoin="round"/>
</svg>