<svg width="24" height="18" viewBox="0 0 24 18" fill="none" xmlns="http://www.w3.org/2000/svg">
<path d="M3 1.04H20.13C20.6604 1.04 21.1691 1.25071 21.5442 1.62579C21.9193 2.00086 22.13 2.50957 22.13 3.04V14.27C22.13 14.5326 22.0783 14.7927 21.9778 15.0354C21.8772 15.278 21.7299 15.4985 21.5442 15.6842C21.3585 15.8699 21.138 16.0172 20.8954 16.1178C20.6527 16.2183 20.3926 16.27 20.13 16.27H3C2.46957 16.27 1.96086 16.0593 1.58579 15.6842C1.21071 15.3091 1 14.8004 1 14.27V3C1 2.46957 1.21071 1.96086 1.58579 1.58579C1.96086 1.21071 2.46957 1 3 1V1.04Z" stroke="#D01018" stroke-width="2" stroke-linecap="round" stroke-linejoin="round"/>
<path d="M5.40039 5.16003L11.2504 10.22L17.6904 5.03003" stroke="#D01018" stroke-width="2" stroke-linecap="round" stroke-linejoin="round"/>
</svg>