<svg width="21" height="25" viewBox="0 0 21 25" fill="none" xmlns="http://www.w3.org/2000/svg">
<path d="M19.3138 21.3C19.3138 21.3 18.5438 22.89 14.0038 23.06C14.0038 23.06 11.1438 23.15 10.4138 23.13C9.74381 23.13 6.78381 23.06 6.78381 23.06C2.25381 22.89 1.48382 21.3 1.48382 21.3C-0.0661804 18.85 2.60381 17.07 2.60381 17.07C3.87462 16.2568 5.21286 15.5543 6.60381 14.97C7.85381 14.31 7.97381 13.97 7.97381 13.97C8.09112 13.7658 8.1452 13.5313 8.12917 13.2963C8.11315 13.0613 8.02776 12.8364 7.88381 12.65C7.10267 11.9147 6.48118 11.0266 6.05798 10.0408C5.63477 9.05504 5.41891 7.99274 5.42382 6.91998C5.42382 1.08998 9.93382 1 10.4238 1C11.0438 1 15.4238 1.08998 15.4238 6.91998C15.4287 7.99274 15.2129 9.05504 14.7897 10.0408C14.3665 11.0266 13.745 11.9147 12.9638 12.65C12.8199 12.8364 12.7345 13.0613 12.7185 13.2963C12.7024 13.5313 12.7565 13.7658 12.8738 13.97C13.2322 14.4205 13.7055 14.766 14.2438 14.97C15.6357 15.5522 16.9742 16.2549 18.2438 17.07C18.2438 17.07 20.8638 18.85 19.3138 21.3Z" stroke="#D01018" stroke-width="2" stroke-linecap="round" stroke-linejoin="round"/>
</svg>