<svg width="18" height="18" viewBox="0 0 18 18" fill="none" xmlns="http://www.w3.org/2000/svg">
<path d="M17.8417 13.9922C17.2233 12.8236 15.0424 11.497 14.7827 11.342C14.7656 11.3317 14.7487 11.3219 14.7312 11.3122C14.3353 11.0944 13.8849 11.0218 13.5503 11.2103C13.283 11.361 13.1346 11.6561 12.934 11.8883C12.6886 12.1723 12.3628 12.5377 12.244 12.6183C11.3276 13.239 10.4795 13.2148 9.62278 12.3584L7.63231 10.3676L5.64185 8.37714C4.78509 7.52073 4.76116 6.67228 5.38193 5.75624C5.46249 5.63694 5.8294 5.30992 6.11375 5.06431C6.34475 4.86477 6.63792 4.71698 6.78856 4.45149C6.97874 4.11632 6.90606 3.66443 6.68698 3.26746C6.67775 3.25075 6.66858 3.23499 6.65879 3.2186C6.50794 2.96584 5.17882 0.778015 4.00768 0.1582C3.47877 -0.12149 2.82929 -0.0237605 2.4061 0.39943L1.52681 1.27836C-1.26147 4.067 0.111344 7.21504 2.89998 10.0037L5.44807 12.5518L7.99651 15.1002C10.7848 17.8888 13.9332 19.2617 16.7215 16.473L17.6008 15.5937C18.0236 15.1706 18.1217 14.5211 17.8417 13.9922Z" fill="white"/>
</svg>
