<svg width="26" height="26" viewBox="0 0 26 26" fill="none" xmlns="http://www.w3.org/2000/svg">
<path d="M25.0085 18.9562V22.5701C25.0113 23.21 24.7604 23.825 24.3108 24.2803C23.8612 24.7357 23.2495 24.9946 22.6096 25H22.3419C18.6282 24.5899 15.0609 23.3208 11.9224 21.2934C9.0231 19.4455 6.5632 16.9856 4.71529 14.0862C2.67879 10.9372 1.40931 7.35441 1.00879 3.62566C0.95438 2.98731 1.15422 2.35327 1.56493 1.86158C1.97564 1.36988 2.56392 1.06027 3.20176 1.00015H7.03187C7.61576 0.993643 8.18229 1.19858 8.62697 1.57703C9.07166 1.95549 9.36446 2.48192 9.45139 3.05933C9.59853 4.21774 9.88192 5.35477 10.2957 6.44673C10.4563 6.87859 10.4903 7.34731 10.3936 7.79782C10.297 8.24833 10.0737 8.66185 9.75001 8.98979L8.21593 10.5239C9.92928 13.5285 12.4184 16.0177 15.4231 17.731L16.9572 16.1969C17.2862 15.875 17.7002 15.6536 18.1506 15.5587C18.6011 15.4639 19.0693 15.4996 19.5002 15.6615C20.5987 16.0657 21.738 16.3488 22.8979 16.5059C23.491 16.5798 24.0354 16.8715 24.4255 17.3243C24.8155 17.7772 25.0233 18.3587 25.0085 18.9562V18.9562Z" stroke="#0464A1" stroke-width="1.5" stroke-linecap="round" stroke-linejoin="round"/>
</svg>
