<svg width="26" height="26" viewBox="0 0 26 26" fill="none" xmlns="http://www.w3.org/2000/svg">
<path d="M18.8611 2.53316C21.3603 3.93282 23.2763 6.18051 24.2627 8.86975C25.2492 11.559 25.241 14.5124 24.2396 17.1961C23.2382 19.8798 21.3097 22.1167 18.8028 23.5024C16.2958 24.8881 13.3758 25.3314 10.5706 24.7518C7.76543 24.1722 5.26015 22.6082 3.50765 20.3424C1.75515 18.0766 0.871035 15.2586 1.01522 12.3978C1.1594 9.53695 2.32234 6.82213 4.29377 4.74402C6.2652 2.66592 8.91507 1.3615 11.7643 1.06689C11.9654 1.06689 12.6022 1 12.8954 1V13.0149L18.241 14.9253" stroke="#0464A1" stroke-width="1.5" stroke-miterlimit="10" stroke-linecap="round"/>
</svg>
