<svg width="157" height="43" viewBox="0 0 157 43" fill="none" xmlns="http://www.w3.org/2000/svg">
<g clip-path="url(#clip0_381_112138)">
<path d="M41.1657 2.28156H30.1111V32.2843H24.7685V2.28156H11.5234V0.0177002H41.1657V2.28156Z" fill="#0464A1"/>
<path d="M10.5694 4.70532L11.2639 7.07128L0 16.4641L3.16101 18.1686L0 27.1664L8.10288 25.0001L8.89091 28.4137L15.1506 22.3057L13.3074 35.9022L17.7863 33.6872L22.1983 43V4.70532H10.5694Z" fill="#D01018"/>
<path d="M56.4788 16.3753C55.859 16.6018 55.2175 16.7639 54.5644 16.8591C53.7329 16.9789 52.8935 17.0353 52.0534 17.0278C50.9768 17.0645 49.9044 16.8755 48.9057 16.473C48.1069 16.1223 47.4255 15.5508 46.9423 14.8261C46.4196 14.0033 46.074 13.0813 45.9272 12.1184C45.7218 10.8713 45.6249 9.60892 45.6379 8.34525C45.6379 5.5724 46.1766 3.48758 47.254 2.09079C48.3314 0.694005 50.0588 0.00301136 52.4363 0.0178078C53.2504 0.00819688 54.0633 0.0810762 54.8627 0.235318C55.367 0.321289 55.8609 0.459646 56.3363 0.648136L56.1939 1.73567C55.7343 1.56695 55.2625 1.4334 54.7825 1.33617C54.1375 1.19701 53.4791 1.12854 52.8192 1.13198C51.9915 1.08674 51.1705 1.30263 50.4729 1.74899C49.889 2.16449 49.4278 2.72863 49.1372 3.38252C48.8111 4.1138 48.608 4.89366 48.5362 5.69077C48.4472 6.57575 48.4041 7.46472 48.4071 8.35413C48.4071 9.35289 48.4427 10.3073 48.5273 11.2172C48.5867 12.0479 48.776 12.8641 49.0883 13.6365C49.3607 14.3081 49.8155 14.8906 50.4016 15.3188C51.11 15.7716 51.9433 15.9906 52.7835 15.9447C53.998 15.9415 55.2028 15.7298 56.3452 15.3188L56.4788 16.3753Z" fill="#0464A1"/>
<path d="M72.5877 16.7393H69.6938L68.1133 12.3358H61.1012L59.4984 16.7393H58.3008L64.3334 0.315186H66.5595L72.5877 16.7393ZM67.7437 11.3193L64.6273 2.49027L61.444 11.3193H67.7437Z" fill="#0464A1"/>
<path d="M86.888 16.7392H85.775L76.4879 3.72427V16.7392H75.3125V0.315165H77.2759L85.7349 12.2604V0.292969H86.888V16.7392Z" fill="#0464A1"/>
<path d="M103.895 16.7393H100.997L99.416 12.3358H92.4039L90.8011 16.7393H89.6035L95.6362 0.315186H97.8622L103.895 16.7393ZM99.0599 11.3193L95.9434 2.49027L92.7601 11.3193H99.0599Z" fill="#0464A1"/>
<path d="M119.55 8.34525C119.569 9.60908 119.44 10.8708 119.167 12.105C118.949 13.0748 118.49 13.9741 117.831 14.7196C117.143 15.4446 116.27 15.9707 115.307 16.2421C113.994 16.6068 112.635 16.7743 111.273 16.7393H106.625V0.315215H111.522C112.902 0.274962 114.28 0.450199 115.605 0.83457C116.545 1.11622 117.389 1.6507 118.045 2.37933C118.649 3.11001 119.061 3.97978 119.242 4.90952C119.463 6.04111 119.566 7.1925 119.55 8.34525ZM116.771 8.34525C116.778 7.34689 116.722 6.34909 116.602 5.35785C116.522 4.59193 116.282 3.85112 115.899 3.18277C115.523 2.586 114.971 2.12056 114.318 1.85109C113.429 1.51608 112.481 1.36505 111.531 1.4072H109.305V15.6784H111.291C112.244 15.7046 113.193 15.5541 114.091 15.2345C114.776 14.9775 115.362 14.5114 115.765 13.9028C116.199 13.2145 116.473 12.4379 116.567 11.6301C116.715 10.5415 116.783 9.4437 116.771 8.34525Z" fill="#0464A1"/>
<path d="M125.697 16.7393H123.025V0.315186H125.697V16.7393Z" fill="#0464A1"/>
<path d="M142.692 16.7393H139.793L138.217 12.3358H131.201L129.598 16.7393H128.4L134.433 0.315186H136.659L142.692 16.7393ZM137.857 11.3193L134.74 2.49027L131.557 11.3193H137.857Z" fill="#0464A1"/>
<path d="M157.004 16.7392H155.896L146.591 3.72427V16.7392H145.42V0.315165H147.383L155.842 12.2604V0.292969H157.018L157.004 16.7392Z" fill="#0464A1"/>
<path d="M51.9429 24.0324H49.5209V32.1335H48.074V24.0324H45.6387V23.4154H51.9429V24.0324Z" fill="#0464A1"/>
<path d="M60.3051 32.1335H58.7379L57.8831 29.7986H54.0899L53.2262 32.1335H52.5762L55.8396 23.4154H57.0595L60.3051 32.1335ZM57.6917 29.2615L55.9954 24.5828L54.2724 29.2615H57.6917Z" fill="#0464A1"/>
<path d="M69.1541 32.1335H67.4579L65.0715 28.2894L62.4715 32.1335H61.7324L64.751 27.7878L62.0307 23.4154H63.6646L65.864 26.9133L68.139 23.4154H68.8647L66.1712 27.4105L69.1541 32.1335Z" fill="#0464A1"/>
<path d="M81.2421 31.9426C80.906 32.0622 80.5583 32.147 80.2048 32.1956C79.7625 32.2593 79.316 32.289 78.8691 32.2844C78.2881 32.3041 77.7092 32.2044 77.1684 31.9914C76.7368 31.8016 76.3679 31.4938 76.1044 31.1036C75.8225 30.6679 75.6359 30.1779 75.5567 29.6654C75.4465 29.0054 75.3944 28.337 75.4009 27.6679C75.4009 26.1883 75.6977 25.083 76.2914 24.352C76.8746 23.6152 77.8095 23.2423 79.0962 23.2423C79.5444 23.2363 79.992 23.2764 80.4318 23.3621C80.7033 23.4051 80.9691 23.4781 81.2243 23.5796L81.1486 24.1567C80.9013 24.0646 80.6466 23.9933 80.3873 23.9436C80.0375 23.87 79.6808 23.8328 79.3233 23.8327C78.8765 23.8096 78.4334 23.9243 78.0544 24.1612C77.7425 24.3809 77.495 24.6797 77.3376 25.0267C77.1616 25.4142 77.0518 25.8283 77.0126 26.2519C76.9681 26.6958 76.9414 27.1752 76.9414 27.6546C76.9414 28.134 76.9636 28.6889 77.0081 29.1727C77.0389 29.6138 77.1411 30.0471 77.3109 30.4556C77.4609 30.8118 77.7076 31.1192 78.0232 31.3434C78.4073 31.5843 78.8568 31.7006 79.3099 31.6763C79.6778 31.6759 80.0447 31.6387 80.4051 31.5653C80.6836 31.513 80.9576 31.4387 81.2243 31.3434L81.2421 31.9426Z" fill="#0464A1"/>
<path d="M90.7658 27.6857C90.7741 28.3592 90.7115 29.0317 90.5788 29.6921C90.4785 30.2131 90.2641 30.7057 89.9511 31.1348C89.6506 31.523 89.2485 31.821 88.7891 31.9959C88.2189 32.2026 87.6147 32.3005 87.0082 32.2844C86.4012 32.3027 85.7963 32.2032 85.2274 31.9915C84.7732 31.807 84.3799 31.4995 84.092 31.1037C83.7874 30.6736 83.5794 30.183 83.4821 29.6655C83.3531 29.0076 83.2919 28.3382 83.2996 27.6679C83.2908 27.0217 83.3581 26.3766 83.4999 25.7459C83.6092 25.2413 83.8314 24.7679 84.1499 24.3609C84.4567 23.9855 84.8576 23.6976 85.312 23.5264C85.8828 23.3226 86.4867 23.2263 87.0928 23.2423C87.6902 23.2267 88.2852 23.323 88.8469 23.5264C89.2952 23.6974 89.6889 23.9857 89.9867 24.3609C90.2949 24.7703 90.5064 25.2437 90.6055 25.7459C90.7304 26.3846 90.7841 27.0352 90.7658 27.6857ZM89.2655 27.6857C89.2655 27.1974 89.2432 26.7224 89.2031 26.2608C89.168 25.8385 89.0689 25.4239 88.9093 25.0312C88.7757 24.7597 88.5866 24.5191 88.3541 24.3249C88.1217 24.1307 87.851 23.9871 87.5595 23.9035C87.268 23.8199 86.9623 23.798 86.6618 23.8393C86.3614 23.8807 86.0729 23.9842 85.815 24.1434C85.5129 24.3716 85.2801 24.679 85.1428 25.0312C84.9847 25.4242 84.8871 25.8387 84.8534 26.2608C84.8089 26.7224 84.7866 27.1974 84.7866 27.6857C84.7866 28.1962 84.8088 28.6978 84.8445 29.1861C84.8761 29.6267 84.9721 30.0603 85.1294 30.4733C85.2698 30.8251 85.5038 31.1321 85.8061 31.3611C86.1754 31.5818 86.5978 31.6983 87.0282 31.6983C87.4587 31.6983 87.8811 31.5818 88.2504 31.3611C88.5512 31.1316 88.7836 30.8247 88.9226 30.4733C89.082 30.061 89.1781 29.627 89.2076 29.1861C89.2476 28.6978 89.2655 28.1962 89.2655 27.6857Z" fill="#0464A1"/>
<path d="M102.261 32.1335H100.877V24.8137L97.7601 32.1335H97.0211L93.9046 24.8137V32.1335H93.2812V23.4154H94.8217L97.8224 30.6464L100.863 23.4287H102.261V32.1335Z" fill="#0464A1"/>
<path d="M111.398 25.879C111.425 26.236 111.368 26.5942 111.232 26.9255C111.096 27.2568 110.885 27.552 110.615 27.7878C109.981 28.2393 109.211 28.4603 108.433 28.4137H106.652V32.1335H105.188V23.4154H108.642C109.372 23.3671 110.095 23.5761 110.686 24.0058C110.939 24.244 111.135 24.5363 111.258 24.8608C111.381 25.1853 111.429 25.5334 111.398 25.879ZM109.898 25.879C109.937 25.3721 109.807 24.8665 109.528 24.4408C109.37 24.2777 109.176 24.1529 108.961 24.0759C108.747 23.999 108.517 23.972 108.291 23.9969H106.634V27.8677H108.162C109.319 27.8558 109.898 27.1929 109.898 25.879Z" fill="#0464A1"/>
<path d="M118.659 32.1335H113.842V23.4154H115.293V31.5342H118.659V32.1335Z" fill="#0464A1"/>
<path d="M122.506 32.1335H121.055V23.4154H122.506V32.1335Z" fill="#0464A1"/>
<path d="M132.349 32.1335H130.782L129.927 29.7986H126.139L125.271 32.1335H124.625L127.884 23.4154H129.086L132.349 32.1335ZM129.736 29.2615L128.04 24.5828L126.317 29.2615H129.736Z" fill="#0464A1"/>
<path d="M140.759 32.1335H140.149L135.105 25.2354V32.1335H134.473V23.4154H135.532L140.1 29.7587V23.4154H140.759V32.1335Z" fill="#0464A1"/>
<path d="M149.12 31.9426C148.785 32.0617 148.439 32.1464 148.087 32.1956C147.637 32.2604 147.183 32.2901 146.729 32.2844C146.146 32.3039 145.566 32.2042 145.024 31.9914C144.593 31.8013 144.226 31.4935 143.964 31.1036C143.682 30.6673 143.494 30.1776 143.412 29.6654C143.303 29.0052 143.253 28.3368 143.261 27.6679C143.261 26.1882 143.557 25.0829 144.151 24.352C144.734 23.6151 145.665 23.2423 146.951 23.2423C147.4 23.2358 147.847 23.2759 148.287 23.3621C148.56 23.4052 148.827 23.4782 149.084 23.5796L149.004 24.1567C148.757 24.0633 148.502 23.992 148.242 23.9436C147.894 23.87 147.539 23.8328 147.183 23.8326C146.768 23.7989 146.352 23.8959 145.995 24.1102C145.638 24.3244 145.357 24.645 145.193 25.0267C145.018 25.4145 144.91 25.8285 144.872 26.2519C144.824 26.7178 144.8 27.1861 144.801 27.6546C144.801 28.1828 144.801 28.6888 144.863 29.1727C144.898 29.6137 145.001 30.0466 145.171 30.4555C145.319 30.8114 145.564 31.1189 145.878 31.3433C146.265 31.5832 146.715 31.6994 147.17 31.6762C147.822 31.6695 148.468 31.557 149.084 31.3433L149.12 31.9426Z" fill="#0464A1"/>
<path d="M157.004 32.1335H151.568V23.4154H156.849V23.988H153.015V27.3838H156.613V27.9387H153.015V31.552H157.022L157.004 32.1335Z" fill="#0464A1"/>
</g>
<defs>
<clipPath id="clip0_381_112138">
<rect width="157" height="43" fill="white"/>
</clipPath>
</defs>
</svg>
