<svg width="48" height="48" viewBox="0 0 48 48" fill="none" xmlns="http://www.w3.org/2000/svg">
<path d="M23.9962 37V20H25.1438V37H23.9962ZM27.306 25.4387C27.2407 24.8587 26.9654 24.4072 26.4803 24.084C25.9998 23.7608 25.3747 23.5992 24.605 23.5992C24.0638 23.5992 23.5997 23.6767 23.2125 23.8316C22.8253 23.9866 22.529 24.1969 22.3238 24.4625C22.1185 24.7281 22.0136 25.0314 22.0089 25.3723C22.0089 25.6556 22.0765 25.9013 22.2118 26.1094C22.3518 26.3174 22.5407 26.4945 22.7786 26.6406C23.0165 26.7823 23.2801 26.9018 23.5693 26.9992C23.8586 27.0966 24.1501 27.1785 24.444 27.2449L25.7875 27.5637C26.3287 27.6832 26.8488 27.8448 27.348 28.0484C27.8518 28.2521 28.302 28.5089 28.6985 28.8188C29.0997 29.1286 29.4169 29.5027 29.6501 29.941C29.8834 30.3793 30 30.8928 30 31.4816C30 32.2785 29.7854 32.9802 29.3562 33.5867C28.9271 34.1888 28.3066 34.6603 27.4949 35.0012C26.6879 35.3376 25.7106 35.5059 24.563 35.5059C23.448 35.5059 22.4801 35.3421 21.659 35.0145C20.8427 34.6869 20.2036 34.2087 19.7417 33.5801C19.2846 32.9514 19.0373 32.1855 19 31.2824H21.5541C21.5914 31.7561 21.7453 32.1501 22.0159 32.4645C22.2865 32.7788 22.6387 33.0134 23.0725 33.1684C23.511 33.3233 24.0008 33.4008 24.542 33.4008C25.1064 33.4008 25.6009 33.3211 26.0254 33.1617C26.4546 32.9979 26.7905 32.7721 27.0331 32.4844C27.2757 32.1922 27.3993 31.8513 27.4039 31.4617C27.3993 31.1076 27.2897 30.8154 27.0751 30.5852C26.8605 30.3505 26.5596 30.1557 26.1724 30.0008C25.7899 29.8414 25.342 29.6997 24.8289 29.5758L23.1985 29.1773C22.0182 28.8896 21.0852 28.4535 20.3995 27.8691C19.7184 27.2803 19.3779 26.499 19.3779 25.525C19.3779 24.7237 19.6064 24.022 20.0636 23.4199C20.5254 22.8178 21.1529 22.3508 21.9459 22.0188C22.739 21.6823 23.637 21.5141 24.6399 21.5141C25.6569 21.5141 26.5479 21.6823 27.313 22.0188C28.0827 22.3508 28.6868 22.8134 29.1253 23.4066C29.5638 23.9954 29.7901 24.6728 29.8041 25.4387H27.306Z" fill="#D01018"/>
<path d="M7.72656 8.28223L5.00163 19.4242L16.1436 22.1491" stroke="#0464A1" stroke-width="2" stroke-linecap="round" stroke-linejoin="round"/>
<path d="M7.3908 29.8738C7.76158 33.5819 9.32715 37.0691 11.8516 39.8103C14.3761 42.5515 17.7229 44.3983 21.388 45.0725C25.053 45.7467 28.8379 45.2119 32.1727 43.5486C35.5074 41.8852 38.2114 39.1835 39.8776 35.8501C41.5437 32.5168 42.0816 28.7323 41.4105 25.0667C40.7393 21.4011 38.8953 18.0527 36.1562 15.526C33.4171 12.9992 29.9313 11.4308 26.2235 11.0569C22.5158 10.683 18.7869 11.5239 15.5985 13.453L4.995 19.4476" stroke="#0464A1" stroke-width="2" stroke-linecap="round" stroke-linejoin="round"/>
<path d="M40.3012 10.5343C36.6384 6.42233 31.5948 3.79634 26.1256 3.15372" stroke="#0464A1" stroke-width="2" stroke-linecap="round" stroke-linejoin="round"/>
<circle opacity="0.2" cx="9.5" cy="38.5" r="8.5" fill="#0464A1"/>
</svg>
