<svg width="48" height="48" viewBox="0 0 48 48" fill="none" xmlns="http://www.w3.org/2000/svg">
<path d="M27 9H34.9422C37.6041 9 39.7993 11.0855 39.9356 13.7439L40 15" stroke="#D01018" stroke-width="2" stroke-miterlimit="10" stroke-linecap="round"/>
<path d="M17.3887 24.9443H32.4998" stroke="#D01018" stroke-width="2" stroke-miterlimit="10" stroke-linecap="round"/>
<path d="M14.5557 32.5H24.9446" stroke="#0464A1" stroke-width="2" stroke-miterlimit="10" stroke-linecap="round"/>
<circle opacity="0.2" cx="9.5" cy="10.5" r="8.5" fill="#0464A1"/>
<path d="M5 15.75V12C5 9.23858 7.23858 7 10 7H17.89C19.7942 7 21.5331 8.08156 22.3749 9.78953L23.7555 12.5908C24.5974 14.2987 26.3362 15.3803 28.2404 15.3803H38C40.7614 15.3803 43 17.6189 43 20.3803V37C43 39.7614 40.7614 42 38 42H10C7.23858 42 5 39.7614 5 37V22.5" stroke="#0464A1" stroke-width="2" stroke-miterlimit="10" stroke-linecap="round"/>
</svg>
