<svg width="48" height="48" viewBox="0 0 48 48" fill="none" xmlns="http://www.w3.org/2000/svg">
<path d="M39.1576 42.9475H13.8418C11.0804 42.9475 8.8418 40.7089 8.8418 37.9475V37.4819M8.8418 15.6195V10.0527C8.8418 7.29131 11.0804 5.05273 13.8418 5.05273H34.1576C36.919 5.05273 39.1576 7.29131 39.1576 10.0527V19.6276" stroke="#0464A1" stroke-width="2" stroke-miterlimit="10" stroke-linecap="round"/>
<rect x="6" y="19.2627" width="36" height="18" rx="5" stroke="#0464A1" stroke-width="2" stroke-miterlimit="10" stroke-linecap="round"/>
<path d="M26.7002 9.6001V10.0001C26.7002 12.7615 28.9388 15.0001 31.7002 15.0001H34.8002" stroke="#0464A1" stroke-width="2" stroke-miterlimit="10" stroke-linecap="round"/>
<path d="M13.2876 26.1268V24.7295H19.6714V26.1268H17.2917V32.7457H15.6673V26.1268H13.2876Z" fill="#D01018"/>
<path d="M21.1127 32.7457H19.3517L22.035 24.7295H24.1528L26.8323 32.7457H25.0713L23.1243 26.5613H23.0635L21.1127 32.7457ZM21.0026 29.5948H25.1624V30.9178H21.0026V29.5948Z" fill="#D01018"/>
<path d="M29.3088 24.7295L30.8763 27.4616H30.937L32.5121 24.7295H34.3681L31.996 28.7376L34.4212 32.7457H32.5311L30.937 30.0097H30.8763L29.2823 32.7457H27.3998L29.8326 28.7376L27.4453 24.7295H29.3088Z" fill="#D01018"/>
<circle opacity="0.2" cx="8.5" cy="15.5" r="8.5" fill="#0464A1"/>
</svg>
