<svg width="48" height="48" viewBox="0 0 48 48" fill="none" xmlns="http://www.w3.org/2000/svg">
<rect x="23.8735" y="4.4873" width="23.7127" height="16.8276" rx="3" transform="rotate(42.9641 23.8735 4.4873)" stroke="#0464A1" stroke-width="2" stroke-miterlimit="10" stroke-linecap="round"/>
<rect x="41.2271" y="20.6475" width="3.64811" height="16.8276" rx="1.82406" transform="rotate(42.9641 41.2271 20.6475)" stroke="#0464A1" stroke-width="2" stroke-miterlimit="10" stroke-linecap="round"/>
<rect x="21.2046" y="2" width="3.64811" height="16.8276" rx="1.82406" transform="rotate(42.9641 21.2046 2)" stroke="#0464A1" stroke-width="2" stroke-miterlimit="10" stroke-linecap="round"/>
<path d="M19.6511 23.5509L22.5114 26.2148L7.333 44.6681C6.07683 46.1953 3.79299 46.3469 2.34593 44.9992V44.9992C0.898876 43.6515 0.887971 41.3627 2.32212 40.0012L19.6511 23.5509Z" stroke="#0464A1" stroke-width="2" stroke-miterlimit="10" stroke-linecap="round"/>
<path d="M22.2339 40H41.3722" stroke="#D01018" stroke-width="2" stroke-miterlimit="10" stroke-linecap="round"/>
<circle opacity="0.2" cx="13.1962" cy="23.184" r="9.03754" fill="#0464A1"/>
<path d="M37.6509 8.29883L43.4987 13.615" stroke="#D85988" stroke-width="2" stroke-miterlimit="10" stroke-linecap="round"/>
<path d="M16.9175 45L45.625 45" stroke="#0464A1" stroke-width="2" stroke-miterlimit="10" stroke-linecap="round"/>
</svg>
