<svg width="48" height="48" viewBox="0 0 48 48" fill="none" xmlns="http://www.w3.org/2000/svg">
<path d="M15.5 43H11C8.23858 43 6 40.7614 6 38V10C6 7.23858 8.23858 5 11 5H36C38.7614 5 41 7.23858 41 10V23" stroke="#0464A1" stroke-width="2" stroke-miterlimit="10" stroke-linecap="round"/>
<path d="M16 13L33 13" stroke="#0464A1" stroke-width="2" stroke-miterlimit="10" stroke-linecap="round"/>
<path d="M12 21H18.5" stroke="#0464A1" stroke-width="2" stroke-miterlimit="10" stroke-linecap="round"/>
<path d="M33 47C35.5714 47 38.0851 46.2374 40.2231 44.8087C42.361 43.38 44.0272 41.3493 45.011 38.9735C45.9948 36.5977 46.2519 33.9835 45.7498 31.4616C45.2476 28.9396 44.0089 26.6233 42.1902 24.8054C40.3715 22.9876 38.0546 21.75 35.5324 21.249C33.0103 20.7481 30.3962 21.0065 28.0208 21.9913C25.6455 22.9762 23.6156 24.6434 22.1879 26.7821C20.7602 28.9207 19.9988 31.4347 20 34.0062" stroke="#0464A1" stroke-width="2" stroke-miterlimit="10" stroke-linecap="round"/>
<path d="M28.5111 46.7832C26.8431 46.205 25.2988 45.2016 23.9899 43.8458C22.681 42.4901 21.6403 40.8158 20.9434 38.9443" stroke="#0464A1" stroke-width="2" stroke-miterlimit="10" stroke-linecap="round"/>
<path d="M37.3516 30.8301L29.8305 38.3511" stroke="#D01018" stroke-width="2" stroke-miterlimit="10" stroke-linecap="round"/>
<path d="M29.8301 30.8301L37.3511 38.3511" stroke="#D01018" stroke-width="2" stroke-miterlimit="10" stroke-linecap="round"/>
<circle opacity="0.2" cx="8.5" cy="39.5" r="8.5" fill="#0464A1"/>
</svg>
