<svg width="48" height="48" viewBox="0 0 48 48" fill="none" xmlns="http://www.w3.org/2000/svg">
<path d="M3 45C3.28483 43.7389 3.85432 39.2618 4.80591 38.307C5.75749 37.3521 6.97373 36.6462 8.32805 36.2625C10.986 35.3938 13.7222 34.7375 16.5055 34.3008C16.7555 34.2616 16.9809 34.127 17.132 33.924L17.5197 33.403C17.8962 32.8971 18.8516 33.0956 19.255 33.5804V33.5804C19.6382 34.041 20.1517 34.399 20.7408 34.6164C20.9634 34.7107 21.1753 34.7996 21.3762 34.8832C22.6491 35.413 23.0902 37.0431 22.2214 38.1137L19.5085 41.4573C18.6152 42.5583 16.8917 42.406 16.2054 41.1654L15.8105 40.4516L13.9804 37.1436" stroke="#0464A1" stroke-width="2" stroke-miterlimit="10" stroke-linecap="round"/>
<path d="M46 45C45.7152 43.7389 45.1457 39.2618 44.1941 38.307C43.2425 37.3521 42.0263 36.6462 40.672 36.2625C38.014 35.3938 35.2778 34.7375 32.4945 34.3008C32.2445 34.2616 32.0191 34.127 31.868 33.924L31.4803 33.403C31.1038 32.8971 30.1484 33.0956 29.745 33.5804V33.5804C29.3618 34.041 28.8483 34.399 28.2592 34.6164C28.0366 34.7107 27.8247 34.7996 27.6238 34.8832C26.3509 35.413 25.9098 37.0431 26.7786 38.1137L29.4915 41.4573C30.3848 42.5583 32.1083 42.406 32.7946 41.1654L33.1895 40.4516L35.0196 37.1436" stroke="#0464A1" stroke-width="2" stroke-miterlimit="10" stroke-linecap="round"/>
<path fill-rule="evenodd" clip-rule="evenodd" d="M35.122 13.7289C35.122 20.5105 30.3567 30.1416 24.4714 30.1416C18.5861 30.1416 13.8208 20.5105 13.8208 13.7289C13.8208 6.9473 18.593 4 24.4714 4C30.3497 4 35.122 6.9473 35.122 13.7289Z" stroke="#0464A1" stroke-width="2" stroke-miterlimit="10" stroke-linecap="round"/>
<path d="M29.1189 10.7612C24.9323 13.5192 20.0885 15.1056 15.0874 15.3568" stroke="#0464A1" stroke-width="2" stroke-miterlimit="10" stroke-linecap="round"/>
<path d="M27.9288 12.0107C27.9288 12.0107 26.8436 15.3282 34.1271 15.1536" stroke="#0464A1" stroke-width="2" stroke-miterlimit="10" stroke-linecap="round"/>
<path d="M8 18C8 19.7949 9.2 24.3077 14 28" stroke="#D01018" stroke-width="2" stroke-miterlimit="10" stroke-linecap="round"/>
<circle opacity="0.2" cx="33.5" cy="27.5" r="8.5" fill="#0464A1"/>
</svg>
