<svg width="48" height="48" viewBox="0 0 48 48" fill="none" xmlns="http://www.w3.org/2000/svg">
<circle opacity="0.2" cx="9.5" cy="18.5" r="8.5" fill="#0464A1"/>
<path d="M23.0602 39L23.0184 30.0052C23.0082 27.812 24.7784 26.0261 26.9715 26.0168V26.0168C29.1634 26.0075 30.9481 27.7764 30.9583 29.9683L31 38.9663" stroke="#D01018" stroke-width="2" stroke-miterlimit="10" stroke-linecap="round"/>
<path d="M22.5895 7.1282L23.5189 6.39922C25.3182 4.98793 27.8456 4.97713 29.6569 6.37301L40.6966 14.881C41.9192 15.8232 42.6381 17.2772 42.6445 18.8207L42.7152 35.9285C42.7182 36.8725 42.347 37.7793 41.6827 38.45C41.0184 39.1208 40.1154 39.5009 39.1714 39.507L14.2842 39.6108C13.8169 39.6139 13.3536 39.5245 12.921 39.3477C12.4883 39.171 12.095 38.9104 11.7634 38.5811C11.4319 38.2517 11.1688 37.86 10.9893 37.4286C10.8098 36.9971 10.7173 36.5344 10.7173 36.067L10.6366 18.9602C10.6293 17.4161 11.3358 15.9553 12.5507 15.0024L14.6132 13.3846L16.6073 11.8205" stroke="#0464A1" stroke-width="2" stroke-miterlimit="10" stroke-linecap="round"/>
<path d="M36.5 4.61133L43.5 10.1113" stroke="#0464A1" stroke-width="2" stroke-miterlimit="10" stroke-linecap="round"/>
<path d="M5 35.6113V39.6113C5 42.3728 7.23858 44.6113 10 44.6113H15" stroke="#D01018" stroke-width="2" stroke-miterlimit="10" stroke-linecap="round"/>
</svg>
