<svg width="177" height="49" viewBox="0 0 177 49" fill="none" xmlns="http://www.w3.org/2000/svg">
<g clip-path="url(#clip0_229_81708)">
<path d="M46.4081 2.59928H33.9453V36.7885H27.9221V2.59928H12.9897V0.0195312H46.4081V2.59928Z" fill="#0464A1"/>
<path d="M11.9158 5.36328L12.6988 8.05937L0 18.7628L3.56369 20.7052L0 30.9584L9.13509 28.4899L10.0235 32.3798L17.0806 25.4195L15.0026 40.9132L20.052 38.3891L25.0261 49.0015V5.36328H11.9158Z" fill="#D01018"/>
<path d="M63.6744 18.6604C62.9757 18.9185 62.2524 19.1033 61.5161 19.2118C60.5787 19.3482 59.6323 19.4125 58.6852 19.404C57.4715 19.4458 56.2626 19.2304 55.1366 18.7717C54.236 18.3721 53.4679 17.7209 52.9231 16.8951C52.3338 15.9574 51.9441 14.9067 51.7787 13.8095C51.547 12.3885 51.4379 10.9499 51.4525 9.5099C51.4525 6.35014 52.0598 3.97441 53.2745 2.38273C54.4891 0.791039 56.4366 0.00362743 59.1169 0.0204885C60.0347 0.0095365 60.9513 0.092585 61.8524 0.268349C62.421 0.366316 62.9778 0.523979 63.5138 0.73877L63.3532 1.97806C62.835 1.78579 62.3031 1.63361 61.7621 1.52281C61.0348 1.36423 60.2926 1.28621 59.5486 1.29013C58.6154 1.23858 57.6899 1.48459 56.9034 1.99323C56.2452 2.46671 55.7252 3.10957 55.3976 3.8547C55.0299 4.68801 54.801 5.57669 54.72 6.48503C54.6197 7.4935 54.5711 8.50651 54.5745 9.52002C54.5745 10.6581 54.6146 11.7457 54.71 12.7826C54.7769 13.7292 54.9903 14.6593 55.3424 15.5394C55.6496 16.3047 56.1623 16.9686 56.8231 17.4565C57.6217 17.9725 58.5612 18.2221 59.5084 18.1698C60.8776 18.1661 62.2359 17.9248 63.5238 17.4565L63.6744 18.6604Z" fill="#0464A1"/>
<path d="M81.8344 19.0752H78.5719L76.79 14.0573H68.8847L67.0777 19.0752H65.7275L72.5287 0.359375H75.0383L81.8344 19.0752ZM76.3734 12.899L72.8599 2.83796L69.2712 12.899H76.3734Z" fill="#0464A1"/>
<path d="M97.9564 19.0751H96.7016L86.2313 4.24408V19.0751H84.9062V0.359278H87.1197L96.6564 13.9712V0.333984H97.9564V19.0751Z" fill="#0464A1"/>
<path d="M117.13 19.0752H113.862L112.081 14.0573H104.175L102.368 19.0752H101.018L107.819 0.359375H110.329L117.13 19.0752ZM111.679 12.899L108.166 2.83796L104.577 12.899H111.679Z" fill="#0464A1"/>
<path d="M134.778 9.51046C134.8 10.9506 134.655 12.3884 134.346 13.7949C134.101 14.8999 133.583 15.9247 132.841 16.7742C132.064 17.6004 131.081 18.1999 129.995 18.5092C128.515 18.9247 126.982 19.1157 125.447 19.0758H120.207V0.359948H125.728C127.284 0.314078 128.837 0.513767 130.331 0.951771C131.391 1.27272 132.343 1.88178 133.081 2.71207C133.763 3.54472 134.227 4.53584 134.432 5.59532C134.681 6.8848 134.797 8.19686 134.778 9.51046ZM131.646 9.51046C131.654 8.37279 131.59 7.23576 131.455 6.10621C131.365 5.23341 131.095 4.38923 130.662 3.62763C130.239 2.94758 129.616 2.4172 128.88 2.11013C127.878 1.72837 126.809 1.55627 125.738 1.6043H123.229V17.8668H125.467C126.542 17.8967 127.612 17.7252 128.624 17.361C129.396 17.0681 130.057 16.537 130.512 15.8435C131.001 15.0591 131.31 14.1741 131.415 13.2536C131.582 12.0132 131.659 10.7622 131.646 9.51046Z" fill="#0464A1"/>
<path d="M141.709 19.0752H138.698V0.359375H141.709V19.0752Z" fill="#0464A1"/>
<path d="M160.868 19.0752H157.601L155.824 14.0573H147.913L146.107 19.0752H144.756L151.557 0.359375H154.067L160.868 19.0752ZM155.417 12.899L151.904 2.83796L148.315 12.899H155.417Z" fill="#0464A1"/>
<path d="M177.005 19.0751H175.755L165.265 4.24408V19.0751H163.945V0.359278H166.158L175.695 13.9712V0.333984H177.02L177.005 19.0751Z" fill="#0464A1"/>
<path d="M58.5599 27.3867H55.8295V36.6182H54.1982V27.3867H51.4526V26.6836H58.5599V27.3867Z" fill="#0464A1"/>
<path d="M67.9864 36.6182H66.2196L65.2559 33.9575H60.9795L60.0058 36.6182H59.2729L62.9521 26.6836H64.3274L67.9864 36.6182ZM65.0401 33.3454L63.1278 28.0139L61.1853 33.3454H65.0401Z" fill="#0464A1"/>
<path d="M77.9643 36.6182H76.052L73.3616 32.2376L70.4304 36.6182H69.5972L73.0002 31.666L69.9335 26.6836H71.7755L74.2551 30.6696L76.8199 26.6836H77.6381L74.6014 31.2361L77.9643 36.6182Z" fill="#0464A1"/>
<path d="M91.5918 36.3994C91.2128 36.5356 90.8209 36.6322 90.4223 36.6877C89.9237 36.7603 89.4202 36.7941 88.9165 36.7889C88.2614 36.8113 87.6088 36.6976 86.9991 36.455C86.5125 36.2387 86.0966 35.888 85.7995 35.4433C85.4817 34.9468 85.2713 34.3884 85.1821 33.8044C85.0579 33.0523 84.9991 32.2907 85.0065 31.5282C85.0065 29.8421 85.3411 28.5826 86.0103 27.7496C86.6679 26.9099 87.7219 26.485 89.1725 26.485C89.6777 26.4782 90.1823 26.5239 90.6783 26.6216C90.9843 26.6706 91.2839 26.7537 91.5717 26.8695L91.4864 27.5271C91.2075 27.4221 90.9204 27.3409 90.6281 27.2843C90.2336 27.2003 89.8316 27.1579 89.4285 27.1578C88.9248 27.1315 88.4253 27.2622 87.9979 27.5321C87.6463 27.7826 87.3673 28.1231 87.1898 28.5185C86.9915 28.9601 86.8676 29.4319 86.8235 29.9146C86.7733 30.4204 86.7431 30.9667 86.7431 31.513C86.7431 32.0593 86.7682 32.6916 86.8184 33.243C86.8531 33.7456 86.9684 34.2393 87.1597 34.7048C87.3289 35.1107 87.607 35.4611 87.9628 35.7165C88.3958 35.991 88.9026 36.1236 89.4134 36.0959C89.8281 36.0954 90.2418 36.0531 90.6481 35.9694C90.9621 35.9098 91.2709 35.8252 91.5717 35.7165L91.5918 36.3994Z" fill="#0464A1"/>
<path d="M102.328 31.5497C102.338 32.3172 102.267 33.0835 102.118 33.8361C102.004 34.4298 101.763 34.9911 101.41 35.48C101.071 35.9224 100.618 36.262 100.1 36.4614C99.457 36.6969 98.7759 36.8085 98.0921 36.7901C97.4077 36.811 96.7258 36.6976 96.0844 36.4563C95.5724 36.2461 95.129 35.8956 94.8044 35.4446C94.461 34.9545 94.2264 34.3955 94.1168 33.8057C93.9713 33.056 93.9024 32.2933 93.911 31.5295C93.9012 30.793 93.977 30.0579 94.1369 29.3392C94.2601 28.7642 94.5106 28.2248 94.8697 27.761C95.2156 27.3332 95.6675 27.0052 96.1797 26.8101C96.8233 26.5778 97.5041 26.4681 98.1874 26.4863C98.8609 26.4685 99.5318 26.5783 100.165 26.8101C100.67 27.005 101.114 27.3335 101.45 27.761C101.797 28.2275 102.036 28.7669 102.148 29.3392C102.288 30.0671 102.349 30.8084 102.328 31.5497ZM100.637 31.5497C100.637 30.9933 100.612 30.4521 100.567 29.926C100.527 29.4448 100.415 28.9724 100.235 28.5248C100.085 28.2155 99.8715 27.9413 99.6094 27.72C99.3474 27.4986 99.0422 27.3351 98.7136 27.2398C98.385 27.1445 98.0403 27.1196 97.7015 27.1667C97.3628 27.2137 97.0376 27.3318 96.7469 27.5132C96.4062 27.7732 96.1439 28.1234 95.989 28.5248C95.8108 28.9726 95.7008 29.445 95.6627 29.926C95.6125 30.4521 95.5875 30.9933 95.5875 31.5497C95.5875 32.1314 95.6125 32.703 95.6527 33.2594C95.6884 33.7615 95.7966 34.2557 95.9739 34.7263C96.1322 35.1272 96.396 35.477 96.7369 35.738C97.1531 35.9894 97.6293 36.1222 98.1147 36.1222C98.6 36.1222 99.0762 35.9894 99.4924 35.738C99.8316 35.4765 100.094 35.1267 100.25 34.7263C100.43 34.2564 100.538 33.7619 100.572 33.2594C100.617 32.703 100.637 32.1314 100.637 31.5497Z" fill="#0464A1"/>
<path d="M115.288 36.6182H113.727V28.277L110.213 36.6182H109.38L105.867 28.277V36.6182H105.164V26.6836H106.901L110.284 34.9236L113.712 26.6988H115.288V36.6182Z" fill="#0464A1"/>
<path d="M125.587 29.4909C125.618 29.8977 125.553 30.3059 125.4 30.6834C125.247 31.0609 125.008 31.3973 124.704 31.666C123.989 32.1806 123.121 32.4323 122.245 32.3792H120.237V36.6181H118.585V26.6836H122.48C123.303 26.6285 124.118 26.8667 124.784 27.3563C125.07 27.6278 125.29 27.9609 125.429 28.3307C125.568 28.7004 125.622 29.0971 125.587 29.4909ZM123.896 29.4909C123.94 28.9133 123.793 28.3372 123.479 27.852C123.3 27.6662 123.082 27.5239 122.84 27.4363C122.598 27.3486 122.339 27.3178 122.084 27.3462H120.217V31.7571H121.938C123.243 31.7436 123.896 30.9882 123.896 29.4909Z" fill="#0464A1"/>
<path d="M133.774 36.6182H128.343V26.6836H129.98V35.9353H133.774V36.6182Z" fill="#0464A1"/>
<path d="M138.11 36.6182H136.474V26.6836H138.11V36.6182Z" fill="#0464A1"/>
<path d="M149.208 36.6182H147.442L146.478 33.9575H142.207L141.228 36.6182H140.5L144.174 26.6836H145.529L149.208 36.6182ZM146.262 33.3454L144.35 28.0139L142.407 33.3454H146.262Z" fill="#0464A1"/>
<path d="M158.69 36.6182H158.002L152.315 28.7575V36.6182H151.603V26.6836H152.797L157.947 33.9119V26.6836H158.69V36.6182Z" fill="#0464A1"/>
<path d="M168.116 36.3995C167.739 36.5352 167.348 36.6318 166.952 36.6878C166.445 36.7617 165.933 36.7955 165.421 36.789C164.764 36.8112 164.11 36.6976 163.498 36.4551C163.013 36.2385 162.599 35.8877 162.304 35.4434C161.986 34.9463 161.774 34.3883 161.681 33.8045C161.559 33.0522 161.502 32.2906 161.511 31.5283C161.511 29.8422 161.845 28.5827 162.515 27.7497C163.172 26.91 164.221 26.4851 165.672 26.4851C166.177 26.4778 166.682 26.5235 167.177 26.6217C167.485 26.6709 167.786 26.754 168.076 26.8696L167.986 27.5272C167.707 27.4207 167.42 27.3395 167.127 27.2844C166.734 27.2004 166.334 27.1581 165.933 27.1579C165.464 27.1194 164.996 27.23 164.593 27.4742C164.191 27.7183 163.875 28.0836 163.689 28.5186C163.492 28.9605 163.37 29.4323 163.328 29.9147C163.273 30.4457 163.246 30.9793 163.247 31.5131C163.247 32.1151 163.247 32.6917 163.318 33.2431C163.356 33.7456 163.473 34.239 163.664 34.7049C163.831 35.1105 164.108 35.4609 164.462 35.7166C164.897 35.99 165.405 36.1224 165.918 36.096C166.653 36.0882 167.382 35.9601 168.076 35.7166L168.116 36.3995Z" fill="#0464A1"/>
<path d="M177.005 36.6182H170.876V26.6836H176.829V27.3361H172.508V31.2057H176.563V31.838H172.508V35.9555H177.025L177.005 36.6182Z" fill="#0464A1"/>
</g>
<defs>
<clipPath id="clip0_229_81708">
<rect width="177" height="49" fill="white"/>
</clipPath>
</defs>
</svg>
