<svg width="157" height="43" viewBox="0 0 157 43" fill="none" xmlns="http://www.w3.org/2000/svg">
<g clip-path="url(#clip0_1092_15958)">
<path d="M41.1648 2.28156H30.1101V32.2843H24.7676V2.28156H11.5225V0.0177002H41.1648V2.28156Z" fill="white"/>
<path d="M10.5694 4.70532L11.2639 7.07128L0 16.4641L3.16101 18.1686L0 27.1664L8.10288 25.0001L8.89091 28.4137L15.1506 22.3057L13.3074 35.9022L17.7863 33.6872L22.1983 43V4.70532H10.5694Z" fill="#D01018"/>
<path d="M56.4798 16.3753C55.86 16.6018 55.2185 16.7639 54.5654 16.8591C53.7339 16.9789 52.8944 17.0353 52.0544 17.0278C50.9778 17.0645 49.9054 16.8755 48.9067 16.473C48.1079 16.1223 47.4265 15.5508 46.9433 14.8261C46.4206 14.0033 46.075 13.0813 45.9282 12.1184C45.7227 10.8713 45.6259 9.60892 45.6388 8.34525C45.6388 5.5724 46.1775 3.48758 47.255 2.09079C48.3324 0.694005 50.0598 0.00301136 52.4372 0.0178078C53.2513 0.00819688 54.0643 0.0810762 54.8637 0.235318C55.368 0.321289 55.8619 0.459646 56.3373 0.648136L56.1948 1.73567C55.7353 1.56695 55.2635 1.4334 54.7835 1.33617C54.1385 1.19701 53.4801 1.12854 52.8201 1.13198C51.9924 1.08674 51.1715 1.30263 50.4738 1.74899C49.89 2.16449 49.4287 2.72863 49.1382 3.38252C48.812 4.1138 48.609 4.89366 48.5372 5.69077C48.4482 6.57575 48.4051 7.46472 48.4081 8.35413C48.4081 9.35289 48.4437 10.3073 48.5283 11.2172C48.5877 12.0479 48.7769 12.8641 49.0892 13.6365C49.3617 14.3081 49.8165 14.8906 50.4026 15.3188C51.111 15.7716 51.9443 15.9906 52.7845 15.9447C53.999 15.9415 55.2038 15.7298 56.3462 15.3188L56.4798 16.3753Z" fill="white"/>
<path d="M72.5877 16.7393H69.6938L68.1133 12.3358H61.1012L59.4984 16.7393H58.3008L64.3334 0.315186H66.5595L72.5877 16.7393ZM67.7437 11.3193L64.6273 2.49027L61.444 11.3193H67.7437Z" fill="white"/>
<path d="M86.888 16.7392H85.775L76.4879 3.72427V16.7392H75.3125V0.315165H77.2759L85.7349 12.2604V0.292969H86.888V16.7392Z" fill="white"/>
<path d="M103.895 16.7393H100.997L99.416 12.3358H92.4039L90.8011 16.7393H89.6035L95.6362 0.315186H97.8622L103.895 16.7393ZM99.0599 11.3193L95.9434 2.49027L92.7601 11.3193H99.0599Z" fill="white"/>
<path d="M119.549 8.34525C119.568 9.60908 119.439 10.8708 119.166 12.105C118.948 13.0748 118.489 13.9741 117.83 14.7196C117.142 15.4446 116.269 15.9707 115.306 16.2421C113.993 16.6068 112.634 16.7743 111.272 16.7393H106.624V0.315215H111.521C112.901 0.274962 114.279 0.450199 115.604 0.83457C116.544 1.11622 117.388 1.6507 118.044 2.37933C118.648 3.11001 119.06 3.97978 119.241 4.90952C119.463 6.04111 119.565 7.1925 119.549 8.34525ZM116.77 8.34525C116.777 7.34689 116.721 6.34909 116.601 5.35785C116.521 4.59193 116.281 3.85112 115.898 3.18277C115.522 2.586 114.97 2.12056 114.317 1.85109C113.428 1.51608 112.48 1.36505 111.53 1.4072H109.304V15.6784H111.29C112.243 15.7046 113.192 15.5541 114.09 15.2345C114.775 14.9775 115.361 14.5114 115.764 13.9028C116.198 13.2145 116.472 12.4379 116.566 11.6301C116.714 10.5415 116.782 9.4437 116.77 8.34525Z" fill="white"/>
<path d="M125.697 16.7393H123.026V0.315186H125.697V16.7393Z" fill="white"/>
<path d="M142.691 16.7393H139.792L138.216 12.3358H131.2L129.597 16.7393H128.399L134.432 0.315186H136.658L142.691 16.7393ZM137.856 11.3193L134.739 2.49027L131.556 11.3193H137.856Z" fill="white"/>
<path d="M157.004 16.7392H155.896L146.591 3.72427V16.7392H145.42V0.315165H147.383L155.842 12.2604V0.292969H157.018L157.004 16.7392Z" fill="white"/>
<path d="M51.9429 24.0324H49.5209V32.1335H48.074V24.0324H45.6387V23.4154H51.9429V24.0324Z" fill="white"/>
<path d="M60.3041 32.1335H58.7369L57.8821 29.7986H54.0889L53.2252 32.1335H52.5752L55.8386 23.4154H57.0585L60.3041 32.1335ZM57.6907 29.2615L55.9944 24.5828L54.2715 29.2615H57.6907Z" fill="white"/>
<path d="M69.1551 32.1335H67.4588L65.0725 28.2894L62.4725 32.1335H61.7334L64.7519 27.7878L62.0317 23.4154H63.6656L65.865 26.9133L68.14 23.4154H68.8657L66.1722 27.4105L69.1551 32.1335Z" fill="white"/>
<path d="M81.2426 31.9426C80.9065 32.0622 80.5588 32.147 80.2053 32.1956C79.763 32.2593 79.3165 32.289 78.8696 32.2844C78.2886 32.3041 77.7097 32.2044 77.1689 31.9914C76.7372 31.8016 76.3683 31.4938 76.1049 31.1036C75.823 30.6679 75.6364 30.1779 75.5572 29.6654C75.447 29.0054 75.3949 28.337 75.4014 27.6679C75.4014 26.1883 75.6982 25.083 76.2919 24.352C76.8751 23.6152 77.81 23.2423 79.0967 23.2423C79.5449 23.2363 79.9924 23.2764 80.4323 23.3621C80.7038 23.4051 80.9696 23.4781 81.2248 23.5796L81.1491 24.1567C80.9018 24.0646 80.6471 23.9933 80.3878 23.9436C80.0379 23.87 79.6813 23.8328 79.3238 23.8327C78.877 23.8096 78.4339 23.9243 78.0549 24.1612C77.7429 24.3809 77.4955 24.6797 77.3381 25.0267C77.1621 25.4142 77.0523 25.8283 77.0131 26.2519C76.9686 26.6958 76.9418 27.1752 76.9418 27.6546C76.9418 28.134 76.9641 28.6889 77.0086 29.1727C77.0394 29.6138 77.1416 30.0471 77.3114 30.4556C77.4614 30.8118 77.7081 31.1192 78.0237 31.3434C78.4078 31.5843 78.8573 31.7006 79.3104 31.6763C79.6783 31.6759 80.0452 31.6387 80.4056 31.5653C80.6841 31.513 80.958 31.4387 81.2248 31.3434L81.2426 31.9426Z" fill="white"/>
<path d="M90.7658 27.6857C90.7741 28.3592 90.7115 29.0317 90.5788 29.6921C90.4785 30.2131 90.2641 30.7057 89.9511 31.1348C89.6506 31.523 89.2485 31.821 88.7891 31.9959C88.2189 32.2026 87.6147 32.3005 87.0082 32.2844C86.4012 32.3027 85.7963 32.2032 85.2274 31.9915C84.7732 31.807 84.3799 31.4995 84.092 31.1037C83.7874 30.6736 83.5794 30.183 83.4821 29.6655C83.3531 29.0076 83.2919 28.3382 83.2996 27.6679C83.2908 27.0217 83.3581 26.3766 83.4999 25.7459C83.6092 25.2413 83.8314 24.7679 84.1499 24.3609C84.4567 23.9855 84.8576 23.6976 85.312 23.5264C85.8828 23.3226 86.4867 23.2263 87.0928 23.2423C87.6902 23.2267 88.2852 23.323 88.8469 23.5264C89.2952 23.6974 89.6889 23.9857 89.9867 24.3609C90.2949 24.7703 90.5064 25.2437 90.6055 25.7459C90.7304 26.3846 90.7841 27.0352 90.7658 27.6857ZM89.2655 27.6857C89.2655 27.1974 89.2432 26.7224 89.2031 26.2608C89.168 25.8385 89.0689 25.4239 88.9093 25.0312C88.7757 24.7597 88.5866 24.5191 88.3541 24.3249C88.1217 24.1307 87.851 23.9871 87.5595 23.9035C87.268 23.8199 86.9623 23.798 86.6618 23.8393C86.3614 23.8807 86.0729 23.9842 85.815 24.1434C85.5129 24.3716 85.2801 24.679 85.1428 25.0312C84.9847 25.4242 84.8871 25.8387 84.8534 26.2608C84.8089 26.7224 84.7866 27.1974 84.7866 27.6857C84.7866 28.1962 84.8088 28.6978 84.8445 29.1861C84.8761 29.6267 84.9721 30.0603 85.1294 30.4733C85.2698 30.8251 85.5038 31.1321 85.8061 31.3611C86.1754 31.5818 86.5978 31.6983 87.0282 31.6983C87.4587 31.6983 87.8811 31.5818 88.2504 31.3611C88.5512 31.1316 88.7836 30.8247 88.9226 30.4733C89.082 30.061 89.1781 29.627 89.2076 29.1861C89.2476 28.6978 89.2655 28.1962 89.2655 27.6857Z" fill="white"/>
<path d="M102.261 32.1335H100.877V24.8137L97.7601 32.1335H97.0211L93.9046 24.8137V32.1335H93.2812V23.4154H94.8217L97.8224 30.6464L100.863 23.4287H102.261V32.1335Z" fill="white"/>
<path d="M111.397 25.879C111.424 26.236 111.367 26.5942 111.231 26.9255C111.095 27.2568 110.883 27.552 110.613 27.7878C109.979 28.2393 109.209 28.4603 108.432 28.4137H106.651V32.1335H105.186V23.4154H108.641C109.37 23.3671 110.094 23.5761 110.684 24.0058C110.937 24.244 111.133 24.5363 111.256 24.8608C111.38 25.1853 111.428 25.5334 111.397 25.879ZM109.896 25.879C109.935 25.3721 109.806 24.8665 109.527 24.4408C109.368 24.2777 109.174 24.1529 108.96 24.0759C108.745 23.999 108.516 23.972 108.289 23.9969H106.633V27.8677H108.16C109.318 27.8558 109.896 27.1929 109.896 25.879Z" fill="white"/>
<path d="M118.658 32.1335H113.841V23.4154H115.292V31.5342H118.658V32.1335Z" fill="white"/>
<path d="M122.505 32.1335H121.054V23.4154H122.505V32.1335Z" fill="white"/>
<path d="M132.348 32.1335H130.781L129.927 29.7986H126.138L125.27 32.1335H124.624L127.883 23.4154H129.085L132.348 32.1335ZM129.735 29.2615L128.039 24.5828L126.316 29.2615H129.735Z" fill="white"/>
<path d="M140.759 32.1335H140.149L135.104 25.2354V32.1335H134.472V23.4154H135.532L140.1 29.7587V23.4154H140.759V32.1335Z" fill="white"/>
<path d="M149.12 31.9426C148.785 32.0617 148.439 32.1464 148.087 32.1956C147.637 32.2604 147.183 32.2901 146.729 32.2844C146.146 32.3039 145.566 32.2042 145.024 31.9914C144.593 31.8013 144.226 31.4935 143.964 31.1036C143.682 30.6673 143.494 30.1776 143.412 29.6654C143.303 29.0052 143.253 28.3368 143.261 27.6679C143.261 26.1882 143.557 25.0829 144.151 24.352C144.734 23.6151 145.665 23.2423 146.951 23.2423C147.4 23.2358 147.847 23.2759 148.287 23.3621C148.56 23.4052 148.827 23.4782 149.084 23.5796L149.004 24.1567C148.757 24.0633 148.502 23.992 148.242 23.9436C147.894 23.87 147.539 23.8328 147.183 23.8326C146.768 23.7989 146.352 23.8959 145.995 24.1102C145.638 24.3244 145.357 24.645 145.193 25.0267C145.018 25.4145 144.91 25.8285 144.872 26.2519C144.824 26.7178 144.8 27.1861 144.801 27.6546C144.801 28.1828 144.801 28.6888 144.863 29.1727C144.898 29.6137 145.001 30.0466 145.171 30.4555C145.319 30.8114 145.564 31.1189 145.878 31.3433C146.265 31.5832 146.715 31.6994 147.17 31.6762C147.822 31.6695 148.468 31.557 149.084 31.3433L149.12 31.9426Z" fill="white"/>
<path d="M157.004 32.1335H151.568V23.4154H156.849V23.988H153.015V27.3838H156.613V27.9387H153.015V31.552H157.022L157.004 32.1335Z" fill="white"/>
</g>
<defs>
<clipPath id="clip0_1092_15958">
<rect width="157" height="43" fill="white"/>
</clipPath>
</defs>
</svg>
