<svg width="12" height="49" viewBox="0 0 12 49" fill="none" xmlns="http://www.w3.org/2000/svg">
<path d="M5.46967 48.5303C5.76256 48.8232 6.23743 48.8232 6.53033 48.5303L11.3033 43.7574C11.5962 43.4645 11.5962 42.9896 11.3033 42.6967C11.0104 42.4038 10.5356 42.4038 10.2427 42.6967L6 46.9393L1.75738 42.6967C1.46449 42.4038 0.989617 42.4038 0.696722 42.6967C0.403828 42.9896 0.403826 43.4644 0.696718 43.7573L5.46967 48.5303ZM6.00019 8C8.20933 8 10.0002 6.20914 10.0002 4C10.0002 1.79086 8.20933 -9.6573e-08 6.00019 0C3.79105 9.65561e-08 2.00019 1.79086 2.00019 4C2.00019 6.20914 3.79105 8 6.00019 8ZM6.75001 46.1667C6.75001 45.7525 6.41422 45.4167 6.00001 45.4167C5.5858 45.4167 5.25001 45.7524 5.25001 46.1667L6.75001 46.1667ZM5.25002 42.5C5.25002 42.9142 5.58581 43.25 6.00002 43.25C6.41423 43.25 6.75002 42.9142 6.75002 42.5L5.25002 42.5ZM6.75004 38.8333C6.75004 38.4191 6.41426 38.0833 6.00004 38.0833C5.58583 38.0833 5.25004 38.4191 5.25004 38.8333L6.75004 38.8333ZM5.25006 35.1667C5.25005 35.5809 5.58584 35.9167 6.00005 35.9167C6.41427 35.9167 6.75005 35.5809 6.75006 35.1667L5.25006 35.1667ZM6.75007 31.5C6.75007 31.0858 6.41429 30.75 6.00008 30.75C5.58586 30.75 5.25007 31.0858 5.25007 31.5L6.75007 31.5ZM5.25009 27.8333C5.25009 28.2475 5.58587 28.5833 6.00008 28.5833C6.4143 28.5833 6.75009 28.2476 6.75009 27.8333L5.25009 27.8333ZM6.7501 24.1667C6.75011 23.7525 6.41432 23.4167 6.00011 23.4167C5.58589 23.4167 5.25011 23.7525 5.2501 24.1667L6.7501 24.1667ZM5.25012 20.5C5.25012 20.9142 5.5859 21.25 6.00012 21.25C6.41433 21.25 6.75012 20.9142 6.75012 20.5L5.25012 20.5ZM6.75014 16.8333C6.75014 16.4191 6.41435 16.0833 6.00014 16.0833C5.58593 16.0833 5.25014 16.4191 5.25014 16.8333L6.75014 16.8333ZM5.25015 13.1667C5.25015 13.5809 5.58593 13.9167 6.00015 13.9167C6.41436 13.9167 6.75015 13.5809 6.75015 13.1667L5.25015 13.1667ZM6.75017 9.5C6.75017 9.08579 6.41438 8.75 6.00017 8.75C5.58596 8.75 5.25017 9.08578 5.25017 9.5L6.75017 9.5ZM5.25018 5.83333C5.25018 6.24754 5.58597 6.58333 6.00018 6.58333C6.41439 6.58333 6.75018 6.24755 6.75018 5.83334L5.25018 5.83333ZM6.75 48L6.75001 46.1667L5.25001 46.1667L5.25 48L6.75 48ZM6.75002 42.5L6.75004 38.8333L5.25004 38.8333L5.25002 42.5L6.75002 42.5ZM6.75006 35.1667L6.75007 31.5L5.25007 31.5L5.25006 35.1667L6.75006 35.1667ZM6.75009 27.8333L6.7501 24.1667L5.2501 24.1667L5.25009 27.8333L6.75009 27.8333ZM6.75012 20.5L6.75014 16.8333L5.25014 16.8333L5.25012 20.5L6.75012 20.5ZM6.75015 13.1667L6.75017 9.5L5.25017 9.5L5.25015 13.1667L6.75015 13.1667ZM6.75018 5.83334L6.75019 4L5.25019 4L5.25018 5.83333L6.75018 5.83334Z" fill="#71707B"/>
</svg>
