<svg width="23" height="18" viewBox="0 0 23 18" fill="none" xmlns="http://www.w3.org/2000/svg">
<path d="M3.00919 1H20.2179C20.7508 1 21.2618 1.21168 21.6386 1.58848C22.0154 1.96528 22.2271 2.47632 22.2271 3.00919V14.2908C22.2271 14.8237 22.0154 15.3347 21.6386 15.7115C21.2618 16.0883 20.7508 16.3 20.2179 16.3H3.00919C2.47632 16.3 1.96528 16.0883 1.58848 15.7115C1.21168 15.3347 1 14.8237 1 14.2908V2.92883C1.02077 2.41001 1.24159 1.91937 1.61615 1.55979C1.99072 1.2002 2.48996 0.999585 3.00919 1V1Z" stroke="#0464A1" stroke-width="1.5" stroke-miterlimit="10"/>
<path d="M5.41992 5.14833L11.2968 10.2215L17.7664 5.00769" stroke="#0464A1" stroke-width="1.5" stroke-linecap="round" stroke-linejoin="round"/>
</svg>