<svg width="20" height="20" viewBox="0 0 20 20" fill="none" xmlns="http://www.w3.org/2000/svg">
<path d="M19.0064 14.4671V17.1775C19.0084 17.6575 18.8203 18.1187 18.4831 18.4603C18.1459 18.8018 17.6871 18.9959 17.2072 19H17.0064C14.2211 18.6924 11.5457 17.7406 9.19183 16.22C7.01733 14.8341 5.1724 12.9892 3.78647 10.8147C2.25909 8.45286 1.30698 5.76581 1.00659 2.96924C0.965785 2.49048 1.11567 2.01496 1.4237 1.64618C1.73173 1.27741 2.17294 1.04521 2.65132 1.00011H5.5239C5.96182 0.995232 6.38672 1.14894 6.72023 1.43278C7.05374 1.71661 7.27334 2.11144 7.33854 2.5445C7.4489 3.41331 7.66144 4.26608 7.97175 5.08505C8.09222 5.40894 8.11772 5.76048 8.04522 6.09836C7.97272 6.43625 7.80525 6.74639 7.56251 6.99235L6.41195 8.14291C7.69696 10.3964 9.56382 12.2633 11.8173 13.5483L12.9679 12.3977C13.2147 12.1563 13.5251 11.9902 13.863 11.919C14.2008 11.8479 14.552 11.8747 14.8752 11.9961C15.699 12.2993 16.5535 12.5116 17.4234 12.6294C17.8683 12.6848 18.2766 12.9036 18.5691 13.2432C18.8616 13.5829 19.0175 14.019 19.0064 14.4671V14.4671Z" stroke="#0464A1" stroke-width="1.5" stroke-linecap="round" stroke-linejoin="round"/>
</svg>