<svg width="26" height="20" viewBox="0 0 26 20" fill="none" xmlns="http://www.w3.org/2000/svg">
<path d="M3.27165 1H22.7283C23.3308 1 23.9086 1.23934 24.3347 1.66535C24.7607 2.09137 25 2.66917 25 3.27165V16.027C25 16.6295 24.7607 17.2073 24.3347 17.6333C23.9086 18.0593 23.3308 18.2986 22.7283 18.2986H3.27165C2.66917 18.2986 2.09137 18.0593 1.66535 17.6333C1.23933 17.2073 1 16.6295 1 16.027V3.18079C1.02348 2.59419 1.27314 2.03947 1.69664 1.63291C2.12014 1.22635 2.68459 0.999531 3.27165 1V1Z" stroke="#0464A1" stroke-width="1.5" stroke-miterlimit="10"/>
<path d="M5.99805 5.69027L12.6426 11.4262L19.9573 5.53125" stroke="#0464A1" stroke-width="1.5" stroke-linecap="round" stroke-linejoin="round"/>
</svg>
