<svg width="80" height="80" viewBox="0 0 80 80" fill="none" xmlns="http://www.w3.org/2000/svg">
<path d="M63.3337 68.3333H23.6147H21.582C21.494 68.3333 21.4109 68.3231 21.3274 68.2952C20.3748 67.9771 14.167 65.5068 14.167 55.1578C14.167 43.9488 19.5206 38.7573 19.5206 26.8405C19.5206 19.7299 17.6146 15.4058 16.0771 13.0745C15.5505 12.276 16.1665 10.8333 17.123 10.8333H57.1127C57.3427 10.8333 57.5632 10.9105 57.7269 11.072C58.7919 12.1223 62.7825 16.7445 62.7825 27.0371C62.7825 38.9147 57.4683 43.7915 57.4683 55.0398C57.4489 56.8991 57.6874 58.752 58.1769 60.5459" stroke="white" stroke-width="2" stroke-miterlimit="10" stroke-linecap="round"/>
<path d="M40.833 24.1667H53.333" stroke="#F1C752" stroke-width="2" stroke-miterlimit="10" stroke-linecap="round"/>
<path d="M27.5 40.8333H52.5" stroke="white" stroke-width="2" stroke-miterlimit="10" stroke-linecap="round"/>
<path d="M30.833 48.3333L47.4997 48.3333" stroke="white" stroke-width="2" stroke-miterlimit="10" stroke-linecap="round"/>
<path d="M21.667 68.2392C21.667 68.2392 27.0704 69.2959 27.0704 64.3257C26.8559 62.5983 26.2598 60.9402 25.3253 59.4714V59.4714C24.6757 58.4504 25.6222 56.3716 26.8212 56.5348L61.8533 61.3034C61.8966 61.3093 61.9376 61.3135 61.981 61.3179C62.4838 61.3694 65.8337 61.8211 65.8337 64.717C65.8337 67.8479 64.894 68.2392 63.4845 68.2392" stroke="white" stroke-width="2" stroke-miterlimit="10" stroke-linecap="round"/>
<path d="M32.5 19.1667H30C27.2386 19.1667 25 21.4053 25 24.1667V26.6667C25 29.4282 27.2386 31.6667 30 31.6667H32.5C35.2614 31.6667 37.5 29.4282 37.5 26.6667V24.1667C37.5 21.4053 35.2614 19.1667 32.5 19.1667Z" stroke="#F1C752" stroke-width="2" stroke-miterlimit="10" stroke-linecap="round"/>
<path d="M12.5 25C13.0556 26.25 13.8333 29.75 12.5 33.75" stroke="white" stroke-width="2" stroke-miterlimit="10" stroke-linecap="round"/>
<ellipse opacity="0.2" cx="59.9997" cy="19.9999" rx="14.1667" ry="14.1667" fill="#F8F8F8"/>
</svg>
