<svg width="80" height="80" viewBox="0 0 80 80" fill="none" xmlns="http://www.w3.org/2000/svg">
<circle opacity="0.2" cx="17" cy="23" r="17" fill="#F8F8F8"/>
<path d="M72.2667 38.6709V20.2399C72.2667 19.0712 71.8081 17.9504 70.992 17.1239C70.1758 16.2975 69.069 15.8333 67.9147 15.8333H11.8519C10.6977 15.8333 9.59074 16.2975 8.77458 17.1239C7.95842 17.9504 7.5 19.0712 7.5 20.2399V59.7599C7.5 60.9287 7.95842 62.0495 8.77458 62.8759C9.59074 63.7024 10.6977 64.1666 11.8519 64.1666H18.0897C19.1942 64.1666 20.0897 63.2712 20.0897 62.1666V58.9621C20.0897 57.8575 20.9851 56.9621 22.0897 56.9621H29.1596C30.2642 56.9621 31.1596 57.8575 31.1596 58.9621V62.1666C31.1596 63.2712 32.055 64.1666 33.1596 64.1666H67.9147C69.069 64.1666 70.1758 63.7024 70.992 62.8759C71.8081 62.0495 72.2667 60.9287 72.2667 59.7599V51.0166" stroke="white" stroke-width="2" stroke-miterlimit="10" stroke-linecap="round"/>
<path d="M15.2334 27.0707V24.5332H25.1424V27.0707H21.7132V36.1332H18.6626V27.0707H15.2334Z" fill="#F1C752"/>
<path d="M27.8298 36.1332H24.4897L28.2529 24.5332H32.4837L36.2469 36.1332H32.9067L30.4128 27.7277H30.3237L27.8298 36.1332ZM27.2063 31.5566H33.4857V33.9129H27.2063V31.5566Z" fill="#F1C752"/>
<path d="M40.6628 24.5332L42.5332 27.909H42.6223L44.515 24.5332H47.9665L44.5595 30.3332L48.1001 36.1332H44.5595L42.6223 32.6895H42.5332L40.596 36.1332H37.0777L40.5737 30.3332L37.189 24.5332H40.6628Z" fill="#F1C752"/>
<path d="M20.5498 45.7998H58.2498" stroke="white" stroke-width="2" stroke-miterlimit="10" stroke-linecap="round"/>
<path d="M46.1665 54.5H64.5332" stroke="white" stroke-width="2" stroke-miterlimit="10" stroke-linecap="round"/>
<path d="M20.8335 72.0833H46.6668" stroke="white" stroke-width="2" stroke-miterlimit="10" stroke-linecap="round"/>
</svg>
