<svg width="80" height="80" viewBox="0 0 80 80" fill="none" xmlns="http://www.w3.org/2000/svg">
<path d="M17.9166 63.3333L7.0038 35.6633C6.52899 34.4375 6.55642 33.0736 7.08007 31.868C7.60371 30.6624 8.58128 29.7124 9.80033 29.2246L51.2496 12.8543C51.854 12.6119 52.5003 12.4916 53.1514 12.5005C53.8024 12.5093 54.4453 12.6472 55.0429 12.9061C55.6405 13.1649 56.181 13.5397 56.6333 14.0087C57.0856 14.4778 57.4408 15.0319 57.6783 15.6391L62.4998 28.0013" stroke="#F1C752" stroke-width="2" stroke-miterlimit="10" stroke-linecap="round"/>
<path d="M67.5759 28.3333H23.2577C20.5382 28.3333 18.3335 30.5252 18.3335 33.2291V62.6041C18.3335 65.308 20.5382 67.4999 23.2577 67.4999H67.5759C70.2955 67.4999 72.5002 65.308 72.5002 62.6041V33.2291C72.5002 30.5252 70.2955 28.3333 67.5759 28.3333Z" stroke="white" stroke-width="2" stroke-miterlimit="10" stroke-linecap="round"/>
<path d="M18.3335 40H72.5002" stroke="white" stroke-width="2" stroke-miterlimit="10" stroke-linecap="round"/>
<path d="M32.5 50H44.1667" stroke="white" stroke-width="2" stroke-miterlimit="10" stroke-linecap="round"/>
<path d="M27.5 58.3333H50" stroke="white" stroke-width="2" stroke-miterlimit="10" stroke-linecap="round"/>
<path d="M21.6665 17.0833L33.7498 12.5" stroke="white" stroke-width="2" stroke-miterlimit="10" stroke-linecap="round"/>
<circle opacity="0.2" cx="21.6667" cy="62.4999" r="14.1667" fill="#F8F8F8"/>
<path d="M59.997 60.8334V46.6667H60.9533V60.8334H59.997ZM62.7551 51.199C62.7007 50.7157 62.4714 50.3394 62.0671 50.0701C61.6667 49.8008 61.1457 49.6661 60.5043 49.6661C60.0534 49.6661 59.6665 49.7307 59.3439 49.8598C59.0212 49.9889 58.7744 50.1641 58.6033 50.3855C58.4323 50.6069 58.3448 50.8596 58.3409 51.1436C58.3409 51.3797 58.3973 51.5845 58.51 51.7579C58.6266 51.9313 58.7841 52.0789 58.9824 52.2006C59.1806 52.3187 59.4003 52.4183 59.6413 52.4994C59.8823 52.5806 60.1253 52.6488 60.3702 52.7042L61.4898 52.9698C61.9407 53.0694 62.3742 53.2041 62.7901 53.3738C63.21 53.5435 63.5851 53.7575 63.9156 54.0157C64.2499 54.274 64.5142 54.5857 64.7086 54.9509C64.903 55.3162 65.0002 55.7441 65.0002 56.2348C65.0002 56.8988 64.8213 57.4836 64.4637 57.989C64.106 58.4907 63.589 58.8837 62.9126 59.1677C62.2401 59.4481 61.4256 59.5883 60.4693 59.5883C59.5402 59.5883 58.7336 59.4518 58.0494 59.1788C57.369 58.9058 56.8365 58.5073 56.4516 57.9835C56.0706 57.4596 55.8646 56.8214 55.8335 56.0688H57.9619C57.993 56.4635 58.1213 56.7919 58.3467 57.0538C58.5722 57.3157 58.8657 57.5113 59.2273 57.6404C59.5927 57.7695 60.0009 57.8341 60.4518 57.8341C60.9222 57.8341 61.3343 57.7677 61.688 57.6348C62.0457 57.4983 62.3256 57.3102 62.5277 57.0704C62.7299 56.8269 62.8329 56.5428 62.8368 56.2182C62.8329 55.923 62.7415 55.6795 62.5627 55.4877C62.3839 55.2922 62.1332 55.1299 61.8105 55.0007C61.4917 54.8679 61.1185 54.7499 60.6909 54.6466L59.3322 54.3145C58.3487 54.0747 57.5712 53.7113 56.9997 53.2244C56.4322 52.7337 56.1484 52.0825 56.1484 51.2709C56.1484 50.6032 56.3389 50.0184 56.7198 49.5167C57.1047 49.0149 57.6276 48.6257 58.2884 48.349C58.9493 48.0687 59.6976 47.9285 60.5335 47.9285C61.3809 47.9285 62.1234 48.0687 62.761 48.349C63.4024 48.6257 63.9058 49.0113 64.2713 49.5056C64.6367 49.9963 64.8252 50.5607 64.8369 51.199H62.7551Z" fill="#F1C752"/>
</svg>
