<svg width="14" height="14" viewBox="0 0 14 14" fill="none" xmlns="http://www.w3.org/2000/svg">
<path d="M13.8768 10.8828C13.3999 9.98149 11.7279 8.95938 11.503 8.82469C11.4858 8.81442 11.4693 8.80473 11.4517 8.79516C11.1806 8.6475 10.8775 8.58754 10.6321 8.67646C10.3436 8.781 10.1943 9.09259 9.9925 9.32374C9.8133 9.52903 9.60496 9.75862 9.52304 9.81418C8.8103 10.297 8.15067 10.2781 7.48434 9.61202L5.93621 8.06364L4.38808 6.51551C3.72171 5.84942 3.7031 5.18952 4.18592 4.47705C4.2415 4.39474 4.47233 4.18531 4.67812 4.00571C4.90811 3.805 5.21763 3.65641 5.32269 3.36981C5.4129 3.12372 5.35276 2.81909 5.20401 2.54692C5.19486 2.53017 5.18554 2.51421 5.17573 2.49782C5.04358 2.27701 4.01996 0.600893 3.11707 0.123044C2.7057 -0.094492 2.20055 -0.0184803 1.8714 0.310666L1.18751 0.994274C-0.981135 3.1632 0.0866005 5.61167 2.25553 7.78059L4.23736 9.76243L6.21947 11.7445C8.38812 13.9135 10.8369 14.9812 13.0055 12.8123L13.6894 12.1284C14.0183 11.7993 14.0946 11.2941 13.8768 10.8828Z" fill="white"/>
</svg>
