<svg width="81" height="81" viewBox="0 0 81 81" fill="none" xmlns="http://www.w3.org/2000/svg">
<path d="M12.8861 56.6079L5.87808 37.9383C5.37748 36.5639 5.4064 35.0346 5.95849 33.6827C6.51059 32.3309 7.54127 31.2657 8.82656 30.7188L52.5278 12.3631C53.1651 12.0912 53.8466 11.9564 54.533 11.9663C55.2194 11.9763 55.8972 12.1309 56.5273 12.4211C57.1573 12.7114 57.7273 13.1316 58.2041 13.6575C58.681 14.1835 59.0555 14.8048 59.3059 15.4856L64.3894 29.347" stroke="#D01018" stroke-width="2" stroke-miterlimit="10" stroke-linecap="round"/>
<path d="M69.7412 29.7192H23.015C20.1477 29.7192 17.8232 32.177 17.8232 35.2088V68.1464C17.8232 71.1782 20.1477 73.6359 23.015 73.6359H69.7412C72.6085 73.6359 74.9329 71.1782 74.9329 68.1464V35.2088C74.9329 32.177 72.6085 29.7192 69.7412 29.7192Z" stroke="white" stroke-width="2" stroke-miterlimit="10" stroke-linecap="round"/>
<path d="M23.9316 43.2612L74.5566 43.2612" stroke="white" stroke-width="2" stroke-miterlimit="10" stroke-linecap="round"/>
<path d="M32.7598 54.0137H45.0603" stroke="white" stroke-width="2" stroke-miterlimit="10" stroke-linecap="round"/>
<path d="M27.4883 63.3579H51.2108" stroke="white" stroke-width="2" stroke-miterlimit="10" stroke-linecap="round"/>
<path d="M21.3379 17.105L34.0777 11.9658" stroke="white" stroke-width="2" stroke-miterlimit="10" stroke-linecap="round"/>
<path d="M61.751 66.1606V50.2759H62.7593V66.1606H61.751ZM64.6591 55.3578C64.6017 54.8159 64.3598 54.3939 63.9336 54.0919C63.5114 53.79 62.9622 53.639 62.2859 53.639C61.8105 53.639 61.4026 53.7114 61.0624 53.8562C60.7223 54.0009 60.462 54.1974 60.2816 54.4456C60.1013 54.6938 60.0091 54.9772 60.005 55.2957C60.005 55.5605 60.0644 55.79 60.1833 55.9845C60.3062 56.1789 60.4722 56.3444 60.6813 56.4809C60.8903 56.6132 61.1219 56.7249 61.376 56.8159C61.6301 56.9069 61.8863 56.9835 62.1445 57.0455L63.3249 57.3434C63.8004 57.455 64.2574 57.606 64.6959 57.7963C65.1386 57.9866 65.5341 58.2265 65.8825 58.5161C66.235 58.8057 66.5137 59.1552 66.7186 59.5647C66.9236 59.9743 67.0261 60.4541 67.0261 61.0043C67.0261 61.7489 66.8375 62.4046 66.4604 62.9713C66.0834 63.5339 65.5382 63.9744 64.8251 64.2929C64.116 64.6073 63.2573 64.7645 62.249 64.7645C61.2694 64.7645 60.419 64.6115 59.6976 64.3054C58.9803 63.9992 58.4188 63.5525 58.013 62.9651C57.6113 62.3777 57.3941 61.662 57.3613 60.8181H59.6054C59.6382 61.2608 59.7734 61.6289 60.0111 61.9226C60.2489 62.2163 60.5583 62.4356 60.9395 62.5804C61.3248 62.7251 61.7551 62.7975 62.2306 62.7975C62.7265 62.7975 63.161 62.7231 63.534 62.5742C63.911 62.4211 64.2061 62.2101 64.4193 61.9413C64.6324 61.6682 64.741 61.3497 64.7451 60.9857C64.741 60.6547 64.6447 60.3817 64.4562 60.1666C64.2676 59.9474 64.0033 59.7654 63.6631 59.6206C63.327 59.4717 62.9335 59.3393 62.4826 59.2235L61.0502 58.8512C60.0132 58.5823 59.1934 58.1748 58.5909 57.6288C57.9925 57.0786 57.6933 56.3485 57.6933 55.4384C57.6933 54.6897 57.8942 54.034 58.2958 53.4714C58.7016 52.9089 59.2529 52.4724 59.9497 52.1622C60.6464 51.8478 61.4354 51.6906 62.3167 51.6906C63.2102 51.6906 63.993 51.8478 64.6652 52.1622C65.3415 52.4724 65.8723 52.9047 66.2575 53.459C66.6428 54.0092 66.8416 54.6421 66.8539 55.3578H64.6591Z" fill="#D01018"/>
<ellipse opacity="0.2" cx="56.148" cy="14.7271" rx="11.0455" ry="11.0455" fill="white"/>
</svg>
