<svg width="81" height="81" viewBox="0 0 81 81" fill="none" xmlns="http://www.w3.org/2000/svg">
<g clip-path="url(#clip0_229_70013)">
<path d="M17.1289 62.2526C17.1289 60.3345 17.899 58.495 19.2698 57.1387C20.6406 55.7824 22.4998 55.0205 24.4384 55.0205L58.9094 55.0205" stroke="white" stroke-width="2" stroke-miterlimit="10" stroke-linejoin="round"/>
<path d="M-nan -nanL24.4196 11.5337H58.8908C61.6522 11.5337 63.8908 13.7723 63.8908 16.5337V64.4096C63.8908 67.171 61.6522 69.4096 58.8908 69.4096H24.4196C22.4973 69.4048 20.6543 68.651 19.2898 67.3115C17.9253 65.9719 17.149 64.1544 17.129 62.2526V18.8034C17.124 17.8521 17.3088 16.9091 17.6727 16.0286C18.0366 15.148 18.5725 14.3472 19.2497 13.6719C19.927 12.9966 20.7322 12.4601 21.6193 12.0932C22.5065 11.7263 23.4581 11.5361 24.4196 11.5337L-nan -nanL-nan -nanZ" stroke="white" stroke-width="2" stroke-miterlimit="10" stroke-linejoin="round"/>
<path d="M28.0742 62.5908H47.864" stroke="white" stroke-width="2" stroke-miterlimit="10" stroke-linecap="round"/>
</g>
<path d="M11.0454 65.3521C11.5056 67.96 13.8988 73.36 19.7897 74.0964" stroke="white" stroke-width="2" stroke-miterlimit="10" stroke-linecap="round"/>
<path d="M69.9546 35.8977V21.1704" stroke="#D01018" stroke-width="2" stroke-miterlimit="10" stroke-linecap="round"/>
<path d="M40.2434 46.9431V22.0908H41.8759V46.9431H40.2434ZM44.9517 30.0416C44.8588 29.1938 44.4672 28.5336 43.7771 28.0612C43.0936 27.5887 42.2043 27.3525 41.1094 27.3525C40.3396 27.3525 39.6793 27.4658 39.1286 27.6923C38.5778 27.9188 38.1564 28.2262 37.8644 28.6145C37.5724 29.0029 37.4231 29.4462 37.4165 29.9445C37.4165 30.3587 37.5127 30.7179 37.7051 31.0221C37.9042 31.3263 38.173 31.5852 38.5114 31.7987C38.8498 32.0058 39.2248 32.1806 39.6362 32.323C40.0476 32.4653 40.4624 32.5851 40.8805 32.6822L42.7916 33.1481C43.5614 33.3229 44.3013 33.5591 45.0114 33.8568C45.7281 34.1545 46.3684 34.5299 46.9325 34.9829C47.5032 35.436 47.9545 35.9829 48.2863 36.6236C48.6181 37.2643 48.784 38.015 48.784 38.8758C48.784 40.0408 48.4787 41.0666 47.8682 41.9532C47.2577 42.8334 46.3751 43.5227 45.2204 44.021C44.0724 44.5129 42.6821 44.7588 41.0497 44.7588C39.4637 44.7588 38.0867 44.5193 36.9188 44.0404C35.7575 43.5615 34.8483 42.8625 34.1914 41.9435C33.541 41.0245 33.1893 39.9049 33.1362 38.5846H36.7694C36.8225 39.2771 37.0415 39.8531 37.4264 40.3126C37.8113 40.7721 38.3123 41.1151 38.9295 41.3416C39.5533 41.5681 40.25 41.6814 41.0198 41.6814C41.8228 41.6814 42.5262 41.5649 43.1301 41.3319C43.7406 41.0925 44.2184 40.7624 44.5635 40.3417C44.9085 39.9146 45.0844 39.4162 45.091 38.8467C45.0844 38.3289 44.9284 37.9018 44.6232 37.5652C44.3179 37.2222 43.8899 36.9375 43.3391 36.7109C42.795 36.478 42.1579 36.2709 41.4279 36.0896L39.1086 35.5072C37.4297 35.0865 36.1025 34.449 35.127 33.5947C34.1582 32.7339 33.6737 31.5916 33.6737 30.1678C33.6737 28.9964 33.9989 27.9706 34.6492 27.0904C35.3062 26.2102 36.1988 25.5274 37.3269 25.042C38.455 24.5502 39.7324 24.3042 41.1592 24.3042C42.6058 24.3042 43.8733 24.5502 44.9616 25.042C46.0566 25.5274 46.9159 26.2037 47.5397 27.071C48.1635 27.9318 48.4853 28.922 48.5052 30.0416H44.9517Z" fill="#D01018"/>
<path d="M10.5854 34.5171V18.4092" stroke="white" stroke-width="2" stroke-miterlimit="10" stroke-linecap="round"/>
<ellipse opacity="0.2" cx="65.3521" cy="67.1934" rx="11.0455" ry="11.0455" fill="white"/>
<defs>
<clipPath id="clip0_229_70013">
<rect width="49.7045" height="60.75" fill="white" transform="translate(15.6479 10.125)"/>
</clipPath>
</defs>
</svg>
