<svg width="80" height="80" viewBox="0 0 80 80" fill="none" xmlns="http://www.w3.org/2000/svg">
<path d="M6.36377 17.5645V35.7532H24.5525" stroke="white" stroke-width="2" stroke-miterlimit="10" stroke-linejoin="round"/>
<path d="M73.0555 66.0677V47.8789H54.8667" stroke="white" stroke-width="2" stroke-miterlimit="10" stroke-linejoin="round"/>
<path d="M65.4575 32.7221C63.9192 28.3776 61.3054 24.4937 57.8601 21.4326C54.4148 18.3715 50.2502 16.2331 45.7549 15.2169C41.2596 14.2007 36.5801 14.3398 32.1531 15.6212C27.7261 16.9027 23.6958 19.2847 20.4383 22.545L6.36377 35.7535M73.0755 47.8793L59.0009 61.1075C55.7411 64.3627 51.7107 66.7402 47.2848 68.0186C42.859 69.297 38.1816 69.4347 33.6882 68.4189C29.1948 67.4031 25.0315 65.2669 21.5858 62.2091C18.1402 59.1513 15.5244 55.2713 13.9818 50.9305" stroke="white" stroke-width="2" stroke-miterlimit="10" stroke-linejoin="round"/>
<path d="M44.4074 6.12609C39.9121 5.10988 35.2326 5.24899 30.8056 6.53043C26.3786 7.81187 22.3482 10.1939 19.0908 13.4542" stroke="#D01018" stroke-width="2" stroke-miterlimit="10" stroke-linejoin="round"/>
<path d="M15.7248 66.6106C18.9974 69.8556 23.0387 72.2188 27.4717 73.4795" stroke="white" stroke-width="2" stroke-miterlimit="10" stroke-linejoin="round"/>
<path d="M39.3336 52.7273V30H40.851V52.7273H39.3336ZM43.7102 37.271C43.6238 36.4956 43.2599 35.8919 42.6183 35.4599C41.983 35.0278 41.1564 34.8118 40.1386 34.8118C39.423 34.8118 38.8092 34.9154 38.2973 35.1225C37.7853 35.3297 37.3936 35.6108 37.1221 35.9659C36.8507 36.321 36.7119 36.7264 36.7058 37.1822C36.7058 37.561 36.7952 37.8894 36.9741 38.1676C37.1592 38.4458 37.409 38.6825 37.7236 38.8778C38.0382 39.0672 38.3867 39.227 38.7692 39.3572C39.1516 39.4875 39.5371 39.5969 39.9258 39.6857L41.7023 40.1119C42.4179 40.2717 43.1056 40.4877 43.7657 40.7599C44.4319 41.0322 45.0272 41.3755 45.5515 41.7898C46.082 42.2041 46.5014 42.7042 46.8099 43.2901C47.1183 43.8761 47.2725 44.5626 47.2725 45.3498C47.2725 46.4151 46.9888 47.3532 46.4212 48.1641C45.8537 48.969 45.0333 49.5993 43.96 50.055C42.8928 50.5049 41.6005 50.7298 40.0831 50.7298C38.6088 50.7298 37.3288 50.5108 36.2431 50.0728C35.1636 49.6348 34.3185 48.9956 33.7079 48.1552C33.1033 47.3147 32.7764 46.2908 32.7271 45.0835H36.1043C36.1537 45.7167 36.3572 46.2435 36.715 46.6637C37.0728 47.0839 37.5385 47.3976 38.1122 47.6048C38.692 47.8119 39.3397 47.9155 40.0553 47.9155C40.8017 47.9155 41.4556 47.8089 42.0169 47.5959C42.5844 47.3769 43.0285 47.075 43.3493 46.6903C43.6701 46.2997 43.8335 45.844 43.8397 45.3232C43.8335 44.8497 43.6886 44.459 43.4048 44.1513C43.1211 43.8376 42.7232 43.5772 42.2112 43.37C41.7054 43.157 41.1132 42.9676 40.4347 42.8018L38.2788 42.2692C36.7181 41.8845 35.4844 41.3015 34.5776 40.5202C33.677 39.7331 33.2267 38.6884 33.2267 37.3864C33.2267 36.3151 33.529 35.377 34.1335 34.5721C34.7442 33.7672 35.5738 33.1428 36.6225 32.6989C37.6711 32.2491 38.8586 32.0241 40.1848 32.0241C41.5296 32.0241 42.7078 32.2491 43.7194 32.6989C44.7372 33.1428 45.5361 33.7612 46.1159 34.5543C46.6957 35.3415 46.9949 36.247 47.0134 37.271H43.7102Z" fill="#D01018"/>
<ellipse opacity="0.2" cx="49.0907" cy="66.3637" rx="10.9091" ry="10.9091" fill="white"/>
</svg>
