<svg width="80" height="80" viewBox="0 0 80 80" fill="none" xmlns="http://www.w3.org/2000/svg">
<path d="M13.6362 20.4545V15C13.6362 12.2386 15.8748 10 18.6362 10H61.3635C64.1249 10 66.3635 12.2386 66.3635 15V65C66.3635 67.7614 64.1249 70 61.3635 70H18.6362C15.8748 70 13.6362 67.7614 13.6362 65V29.5455" stroke="white" stroke-width="2" stroke-miterlimit="10" stroke-linejoin="round"/>
<path d="M39.6387 38.2555C39.6387 38.2555 38.8503 39.9086 34.2115 40.0753C34.2115 40.0753 31.2779 40.1717 30.5445 40.1495C29.8624 40.1717 26.8334 40.0753 26.8334 40.0753C22.1946 39.9086 21.4062 38.2555 21.4062 38.2555C19.8147 35.7239 22.554 33.8781 22.554 33.8781C23.5991 33.0404 26.6244 31.7135 26.6244 31.7135C27.9079 31.0241 28.0216 30.7016 28.0216 30.7016C28.1421 30.4894 28.1976 30.2459 28.1813 30.0019C28.165 29.7578 28.0775 29.5241 27.9299 29.3302C27.1307 28.5691 26.4952 27.6497 26.063 26.6294C25.6308 25.609 25.4113 24.5097 25.418 23.3998C25.451 17.3619 30.0348 17.2729 30.5298 17.2729C31.1569 17.2729 35.6087 17.3619 35.6417 23.3998C35.6484 24.5097 35.4288 25.609 34.9966 26.6294C34.5645 27.6497 33.929 28.5691 33.1297 29.3302C32.9821 29.5241 32.8946 29.7578 32.8783 30.0019C32.862 30.2459 32.9176 30.4894 33.0381 30.7016C33.0381 30.7016 33.2984 31.1686 34.4315 31.7135C34.4315 31.7135 37.4605 33.0404 38.5056 33.8781C39.5507 34.7157 41.2156 35.7239 39.6387 38.2555Z" stroke="#D01018" stroke-width="2.05" stroke-miterlimit="10"/>
<path d="M29.0908 50H53.6363" stroke="white" stroke-width="2" stroke-miterlimit="10" stroke-linecap="round"/>
<path d="M21.8184 60H40.0002" stroke="white" stroke-width="2" stroke-miterlimit="10" stroke-linecap="round"/>
<path d="M46.3638 23.6362H57.2729" stroke="white" stroke-width="2" stroke-miterlimit="10" stroke-linecap="round"/>
<path d="M46.3638 33.6362H57.2729" stroke="white" stroke-width="2" stroke-miterlimit="10" stroke-linecap="round"/>
<circle opacity="0.2" cx="12.7275" cy="12.7275" r="10.9091" fill="white"/>
<path d="M6.36377 48.1816V67.7271" stroke="white" stroke-width="2" stroke-miterlimit="10" stroke-linecap="round"/>
<path d="M73.1816 26.3634V17.7271" stroke="#D01018" stroke-width="2" stroke-miterlimit="10" stroke-linecap="round"/>
</svg>
