<svg width="27" height="22" viewBox="0 0 27 22" fill="none" xmlns="http://www.w3.org/2000/svg">
<path d="M24.2525 5.43743C24.3998 8.08377 23.8731 10.7242 22.7213 13.1127C21.5695 15.5011 19.8301 17.5598 17.6654 19.0967C10.136 24.5692 2.60665 20.8535 0 19.615C0 19.615 4.84346 20.0366 8.11059 17.1906C6.98066 17.155 5.88838 16.777 4.97911 16.107C4.06983 15.437 3.3867 14.5066 3.02057 13.4398C3.82517 13.5941 4.65603 13.5397 5.43348 13.2817C5.43348 13.2817 1.11841 12.21 1.03034 7.7828C1.79406 8.20853 2.65651 8.42664 3.53132 8.41526C2.36634 7.64018 1.53768 6.45494 1.21113 5.09664C0.884575 3.73833 1.07539 2.09622 1.76125 0.87841C1.76125 0.87841 5.14285 6.35977 13.2622 6.8956C13.1679 6.37352 13.1149 5.84485 13.1037 5.31447C13.1037 4.58539 13.9139 0.000100917 18.7045 0.000100917C19.468 -0.00458039 20.2237 0.153655 20.9209 0.464236C21.618 0.774818 22.2405 1.23055 22.7466 1.80083C24.0141 1.6005 25.219 1.11376 26.2691 0.377811C25.8499 1.63725 25.0227 2.72187 23.9178 3.46101C24.9926 3.37044 26.0395 3.07209 27 2.5826C26.3579 3.76314 25.4088 4.74931 24.2525 5.43743Z" fill="#0464A1"/>
</svg>
