<svg width="25" height="24" viewBox="0 0 25 24" fill="none" xmlns="http://www.w3.org/2000/svg">
<path d="M21.9654 0H2.91214C1.30381 0 0 1.29709 0 2.89713V21.1029C0 22.7029 1.30381 24 2.91214 24H21.9654C23.5738 24 24.8776 22.7029 24.8776 21.1029V2.89713C24.8776 1.29709 23.5738 0 21.9654 0Z" fill="#0464A1"/>
<path d="M12.4352 18.1794C15.8635 18.1794 18.6428 15.4145 18.6428 12.0038C18.6428 8.59305 15.8635 5.82812 12.4352 5.82812C9.00679 5.82812 6.22754 8.59305 6.22754 12.0038C6.22754 15.4145 9.00679 18.1794 12.4352 18.1794Z" fill="#0464A1" stroke="white" stroke-width="2" stroke-miterlimit="10"/>
<path d="M20.2844 5.65363C20.9678 5.65363 21.5219 5.10244 21.5219 4.42252C21.5219 3.74259 20.9678 3.19141 20.2844 3.19141C19.6009 3.19141 19.0469 3.74259 19.0469 4.42252C19.0469 5.10244 19.6009 5.65363 20.2844 5.65363Z" fill="white"/>
</svg>
