<svg width="27" height="26" viewBox="0 0 27 26" fill="none" xmlns="http://www.w3.org/2000/svg">
<path d="M5.74486 8.21875H0V26H5.74486V8.21875Z" fill="#0464A1"/>
<path d="M2.90782 5.65795C3.46658 5.65281 4.01131 5.48231 4.47329 5.16796C4.93527 4.85361 5.29381 4.4095 5.50368 3.89163C5.71356 3.37375 5.76537 2.80532 5.65259 2.25803C5.5398 1.71075 5.26746 1.20911 4.86993 0.816417C4.4724 0.42372 3.96748 0.157532 3.41886 0.0514486C2.87023 -0.0546353 2.30248 0.00413668 1.78721 0.220332C1.27194 0.436528 0.832238 0.800472 0.52356 1.26626C0.214882 1.73205 0.0510569 2.27881 0.0527473 2.83759C0.0550196 3.21025 0.130667 3.57882 0.275379 3.92224C0.420091 4.26566 0.631034 4.5772 0.896153 4.83909C1.16127 5.10099 1.47538 5.3081 1.82054 5.4486C2.16571 5.5891 2.53517 5.66024 2.90782 5.65795Z" fill="#0464A1"/>
<path d="M26.2683 16.1852C26.2683 15.248 26.4505 12.1673 24.2116 9.95436C23.04 8.80018 22.476 8.21875 19.5949 8.21875C18.5746 8.25872 17.5748 8.51724 16.6631 8.97686C15.7513 9.43648 14.9489 10.0865 14.3099 10.8829V8.2795H8.46094V25.8872H14.3099V15.8814C14.2712 15.4965 14.3155 15.1078 14.4397 14.7414C14.5639 14.375 14.7651 14.0395 15.0299 13.7574C15.2947 13.4754 15.6168 13.2533 15.9747 13.1063C16.3325 12.9592 16.7177 12.8905 17.1043 12.9049C17.5589 12.9064 18.0084 13.0007 18.4253 13.182C18.8422 13.3633 19.2177 13.6278 19.5288 13.9592C19.8399 14.2907 20.0802 14.6822 20.2348 15.1097C20.3894 15.5372 20.4551 15.9917 20.4279 16.4455V25.9219H26.2769V16.1852H26.2683Z" fill="#0464A1"/>
</svg>
