<svg width="24" height="24" viewBox="0 0 24 24" fill="none" xmlns="http://www.w3.org/2000/svg">
<path d="M12.3147 0C10.2528 0.000477253 8.22785 0.546482 6.44526 1.5826C4.66267 2.61871 3.18594 4.10806 2.16503 5.8994C1.14412 7.69074 0.61538 9.72029 0.632447 11.7821C0.649514 13.8438 1.21183 15.8644 2.26225 17.6385L0 24L6.59958 21.8653C8.15632 22.737 9.89205 23.2403 11.6736 23.3366C13.4551 23.433 15.2351 23.1198 16.8767 22.4211C18.5184 21.7225 19.9781 20.6569 21.1438 19.3063C22.3096 17.9556 23.1503 16.3558 23.6015 14.6297C24.0527 12.9035 24.1022 11.0969 23.7465 9.34863C23.3908 7.60032 22.6392 5.95676 21.5493 4.54416C20.4595 3.13156 19.0605 1.98748 17.4597 1.19975C15.8588 0.412022 14.0988 0.00160677 12.3147 0Z" fill="#0464A1"/>
<path d="M5.83457 8.50374C5.87712 7.87806 6.05411 7.26889 6.35339 6.71777C6.49826 6.36275 6.73861 6.05481 7.04786 5.82812C7.35712 5.60143 7.72318 5.46489 8.10533 5.43359C8.58159 5.50163 9.04933 5.33154 9.25344 5.90985C9.45755 6.48816 9.96784 7.83189 10.1719 8.35067C10.3761 8.86945 10.2995 9.00551 10.1209 9.29467C9.85752 9.62687 9.57347 9.94218 9.27046 10.2387C9.13439 10.3833 9.10887 10.6214 9.27046 10.9871C9.70949 11.8218 10.2843 12.5777 10.9714 13.2238C11.8729 14.0147 13.3272 14.9928 13.7949 14.9928C14.1266 14.9928 14.943 13.8786 15.1981 13.598C15.2948 13.4704 15.436 13.3839 15.5935 13.3555C15.7511 13.3271 15.9135 13.3591 16.0486 13.4449C16.4058 13.615 18.0897 14.508 18.4299 14.7121C18.5488 14.7625 18.6494 14.8484 18.7178 14.9579C18.7863 15.0675 18.8194 15.1954 18.8126 15.3244C18.7829 15.9849 18.5278 16.6152 18.0897 17.1104C17.3518 17.7224 16.4287 18.067 15.4703 18.0884C14.4838 18.0884 12.2045 16.9318 11.5242 16.6171C10.2335 15.7752 9.08522 14.7331 8.12231 13.53C7.26334 12.3393 5.80055 10.3663 5.83457 8.50374Z" fill="white"/>
</svg>
