<svg width="35" height="35" viewBox="0 0 35 35" fill="none" xmlns="http://www.w3.org/2000/svg">
<path d="M4.01757 33.0501L11.0892 19.4748C11.2541 19.1557 11.5021 18.8884 11.8063 18.7021C12.1105 18.5157 12.4594 18.4174 12.8149 18.4178H31.622C31.9565 18.4229 32.2841 18.515 32.5734 18.6853C32.8627 18.8557 33.1038 19.0986 33.2737 19.3907C33.4436 19.6827 33.5365 20.0141 33.5435 20.353C33.5506 20.6919 33.4714 21.027 33.3138 21.326L27.6745 32.0045C27.5103 32.316 27.2668 32.5773 26.9693 32.7611C26.6718 32.945 26.3311 33.0448 25.9827 33.0501H2.60775C2.18195 33.0486 1.77395 32.8766 1.47286 32.5716C1.17178 32.2665 1.00197 31.8532 1.00049 31.4218V12.1957C1.00049 11.7412 1.17872 11.3052 1.49599 10.9837C1.81327 10.6623 2.24359 10.4817 2.69228 10.4817H3.65095" stroke="#0464A1" stroke-width="2" stroke-miterlimit="10" stroke-linecap="round"/>
<path d="M7.18701 16.977L7.18701 3.56827C7.18701 3.01972 7.40211 2.49359 7.78495 2.10571C8.16779 1.71783 8.68702 1.49997 9.22844 1.49997H20.7777C21.0458 1.49993 21.3113 1.55333 21.559 1.65725C21.8067 1.76116 22.0318 1.91352 22.2214 2.10557L25.3794 5.30513C25.569 5.49723 25.7193 5.72526 25.8218 5.97622C25.9244 6.22719 25.9772 6.4962 25.9772 6.76783V13.7674" stroke="#D01018" stroke-width="2" stroke-miterlimit="10" stroke-linecap="round"/>
</svg>
